<svg xmlns="http://www.w3.org/2000/svg" xmlns:xlink="http://www.w3.org/1999/xlink" width="500" zoomAndPan="magnify" viewBox="0 0 375 374.999991" height="500" preserveAspectRatio="xMidYMid meet" version="1.0"><defs><clipPath id="87a4b268eb"><path d="M 191 304 L 250 304 L 250 362.800781 L 191 362.800781 Z M 191 304 " clip-rule="nonzero"/></clipPath><clipPath id="ebb566cec0"><path d="M 41 12.550781 L 80 12.550781 L 80 51 L 41 51 Z M 41 12.550781 " clip-rule="nonzero"/></clipPath><clipPath id="bf20e788f9"><path d="M 320 141 L 359.699219 141 L 359.699219 181 L 320 181 Z M 320 141 " clip-rule="nonzero"/></clipPath><clipPath id="5ee629ed63"><path d="M 219.242188 318.09375 L 359.828125 318.09375 L 359.828125 369.960938 L 219.242188 369.960938 Z M 219.242188 318.09375 " clip-rule="nonzero"/></clipPath><clipPath id="be595d847d"><path d="M 203.199219 235 L 350 235 L 350 314 L 203.199219 314 Z M 203.199219 235 " clip-rule="nonzero"/></clipPath><clipPath id="c5e298da78"><path d="M 34.667969 25.289062 L 154.667969 25.289062 L 154.667969 145.289062 L 34.667969 145.289062 Z M 34.667969 25.289062 " clip-rule="nonzero"/></clipPath><clipPath id="d5260d46e5"><path d="M 77 268 L 160 268 L 160 310.953125 L 77 310.953125 Z M 77 268 " clip-rule="nonzero"/></clipPath><clipPath id="1c4ebda48a"><path d="M 77 201.453125 L 88 201.453125 L 88 234 L 77 234 Z M 77 201.453125 " clip-rule="nonzero"/></clipPath><clipPath id="58d02dbe8e"><path d="M 230.78125 25.289062 L 344.78125 25.289062 L 344.78125 188.039062 L 230.78125 188.039062 Z M 230.78125 25.289062 " clip-rule="nonzero"/></clipPath></defs><path fill="#5271ff" d="M 98.90625 170.5 C 98.90625 171.96875 98.835938 173.433594 98.691406 174.890625 C 98.546875 176.351562 98.332031 177.800781 98.046875 179.238281 C 97.761719 180.675781 97.40625 182.097656 96.980469 183.503906 C 96.554688 184.90625 96.058594 186.285156 95.5 187.640625 C 94.9375 188.996094 94.3125 190.320312 93.621094 191.613281 C 92.929688 192.90625 92.175781 194.164062 91.359375 195.382812 C 90.546875 196.601562 89.671875 197.777344 88.742188 198.914062 C 87.8125 200.046875 86.828125 201.132812 85.789062 202.167969 C 84.753906 203.207031 83.667969 204.191406 82.535156 205.121094 C 81.398438 206.050781 80.222656 206.925781 79.003906 207.738281 C 77.785156 208.554688 76.527344 209.308594 75.234375 210 C 73.941406 210.691406 72.617188 211.316406 71.261719 211.878906 C 69.90625 212.4375 68.527344 212.933594 67.125 213.359375 C 65.71875 213.785156 64.296875 214.140625 62.859375 214.425781 C 61.421875 214.710938 59.972656 214.925781 58.511719 215.070312 C 57.050781 215.214844 55.589844 215.285156 54.121094 215.285156 C 52.65625 215.285156 51.191406 215.214844 49.734375 215.070312 C 48.273438 214.925781 46.824219 214.710938 45.386719 214.425781 C 43.945312 214.140625 42.527344 213.785156 41.121094 213.359375 C 39.71875 212.933594 38.339844 212.4375 36.984375 211.878906 C 35.628906 211.316406 34.304688 210.691406 33.011719 210 C 31.71875 209.308594 30.460938 208.554688 29.242188 207.738281 C 28.023438 206.925781 26.84375 206.050781 25.710938 205.121094 C 24.578125 204.191406 23.492188 203.207031 22.453125 202.167969 C 21.417969 201.132812 20.433594 200.046875 19.503906 198.914062 C 18.574219 197.777344 17.699219 196.601562 16.886719 195.382812 C 16.070312 194.164062 15.316406 192.90625 14.625 191.613281 C 13.933594 190.320312 13.308594 188.996094 12.746094 187.640625 C 12.183594 186.285156 11.691406 184.90625 11.265625 183.503906 C 10.839844 182.097656 10.484375 180.675781 10.199219 179.238281 C 9.910156 177.800781 9.695312 176.351562 9.554688 174.890625 C 9.410156 173.433594 9.335938 171.96875 9.335938 170.5 C 9.335938 169.035156 9.410156 167.570312 9.554688 166.113281 C 9.695312 164.652344 9.910156 163.203125 10.199219 161.765625 C 10.484375 160.324219 10.839844 158.90625 11.265625 157.5 C 11.691406 156.097656 12.183594 154.71875 12.746094 153.363281 C 13.308594 152.007812 13.933594 150.683594 14.625 149.390625 C 15.316406 148.097656 16.070312 146.839844 16.886719 145.621094 C 17.699219 144.402344 18.574219 143.222656 19.503906 142.089844 C 20.433594 140.957031 21.417969 139.871094 22.453125 138.832031 C 23.492188 137.796875 24.578125 136.8125 25.710938 135.882812 C 26.84375 134.953125 28.023438 134.078125 29.242188 133.265625 C 30.460938 132.449219 31.71875 131.695312 33.011719 131.003906 C 34.304688 130.3125 35.628906 129.6875 36.984375 129.125 C 38.339844 128.5625 39.71875 128.070312 41.121094 127.644531 C 42.527344 127.21875 43.945312 126.863281 45.386719 126.578125 C 46.824219 126.289062 48.273438 126.074219 49.734375 125.933594 C 51.191406 125.789062 52.65625 125.714844 54.121094 125.714844 C 55.589844 125.714844 57.050781 125.789062 58.511719 125.933594 C 59.972656 126.074219 61.421875 126.289062 62.859375 126.578125 C 64.296875 126.863281 65.71875 127.21875 67.125 127.644531 C 68.527344 128.070312 69.90625 128.5625 71.261719 129.125 C 72.617188 129.6875 73.941406 130.3125 75.234375 131.003906 C 76.527344 131.695312 77.785156 132.449219 79.003906 133.265625 C 80.222656 134.078125 81.398438 134.953125 82.535156 135.882812 C 83.667969 136.8125 84.753906 137.796875 85.789062 138.832031 C 86.828125 139.871094 87.8125 140.957031 88.742188 142.089844 C 89.671875 143.222656 90.546875 144.402344 91.359375 145.621094 C 92.175781 146.839844 92.929688 148.097656 93.621094 149.390625 C 94.3125 150.683594 94.9375 152.007812 95.5 153.363281 C 96.058594 154.71875 96.554688 156.097656 96.980469 157.5 C 97.40625 158.90625 97.761719 160.324219 98.046875 161.765625 C 98.332031 163.203125 98.546875 164.652344 98.691406 166.113281 C 98.835938 167.570312 98.90625 169.035156 98.90625 170.5 Z M 98.90625 170.5 " fill-opacity="1" fill-rule="nonzero"/><g clip-path="url(#87a4b268eb)"><path fill="#385587" d="M 249.28125 333.667969 C 249.28125 334.609375 249.234375 335.550781 249.140625 336.488281 C 249.050781 337.425781 248.910156 338.359375 248.726562 339.285156 C 248.542969 340.210938 248.316406 341.121094 248.042969 342.027344 C 247.765625 342.929688 247.449219 343.816406 247.089844 344.6875 C 246.726562 345.558594 246.324219 346.410156 245.882812 347.242188 C 245.4375 348.074219 244.953125 348.878906 244.429688 349.664062 C 243.902344 350.449219 243.34375 351.207031 242.746094 351.933594 C 242.144531 352.664062 241.515625 353.359375 240.847656 354.027344 C 240.179688 354.695312 239.480469 355.328125 238.753906 355.925781 C 238.023438 356.523438 237.269531 357.085938 236.484375 357.609375 C 235.699219 358.132812 234.890625 358.617188 234.058594 359.0625 C 233.226562 359.507812 232.375 359.910156 231.503906 360.269531 C 230.632812 360.632812 229.746094 360.949219 228.84375 361.222656 C 227.941406 361.496094 227.027344 361.726562 226.101562 361.910156 C 225.179688 362.09375 224.246094 362.230469 223.308594 362.324219 C 222.371094 362.414062 221.429688 362.460938 220.484375 362.460938 C 219.542969 362.460938 218.601562 362.414062 217.664062 362.324219 C 216.726562 362.230469 215.792969 362.09375 214.867188 361.910156 C 213.941406 361.726562 213.027344 361.496094 212.125 361.222656 C 211.222656 360.949219 210.335938 360.632812 209.464844 360.269531 C 208.59375 359.910156 207.742188 359.507812 206.910156 359.0625 C 206.078125 358.617188 205.273438 358.132812 204.488281 357.609375 C 203.703125 357.085938 202.945312 356.523438 202.21875 355.925781 C 201.488281 355.328125 200.792969 354.695312 200.125 354.027344 C 199.457031 353.359375 198.824219 352.664062 198.226562 351.933594 C 197.628906 351.207031 197.066406 350.449219 196.542969 349.664062 C 196.019531 348.878906 195.535156 348.070312 195.089844 347.242188 C 194.644531 346.410156 194.242188 345.558594 193.882812 344.6875 C 193.519531 343.816406 193.203125 342.929688 192.929688 342.023438 C 192.65625 341.121094 192.425781 340.210938 192.242188 339.285156 C 192.058594 338.359375 191.921875 337.425781 191.828125 336.488281 C 191.738281 335.550781 191.691406 334.609375 191.691406 333.667969 C 191.691406 332.722656 191.738281 331.78125 191.828125 330.84375 C 191.921875 329.90625 192.058594 328.972656 192.242188 328.046875 C 192.425781 327.125 192.65625 326.210938 192.929688 325.308594 C 193.203125 324.40625 193.519531 323.519531 193.882812 322.648438 C 194.242188 321.777344 194.644531 320.925781 195.089844 320.09375 C 195.535156 319.261719 196.019531 318.453125 196.542969 317.667969 C 197.066406 316.882812 197.628906 316.128906 198.226562 315.398438 C 198.824219 314.671875 199.457031 313.972656 200.125 313.304688 C 200.792969 312.636719 201.488281 312.003906 202.21875 311.40625 C 202.945312 310.808594 203.703125 310.25 204.488281 309.722656 C 205.273438 309.199219 206.078125 308.714844 206.910156 308.269531 C 207.742188 307.828125 208.59375 307.425781 209.464844 307.0625 C 210.335938 306.703125 211.222656 306.386719 212.125 306.109375 C 213.027344 305.835938 213.941406 305.609375 214.867188 305.425781 C 215.792969 305.242188 216.726562 305.101562 217.664062 305.011719 C 218.601562 304.917969 219.542969 304.871094 220.484375 304.871094 C 221.429688 304.871094 222.371094 304.917969 223.308594 305.011719 C 224.246094 305.101562 225.179688 305.242188 226.101562 305.425781 C 227.027344 305.609375 227.941406 305.835938 228.84375 306.109375 C 229.746094 306.386719 230.632812 306.703125 231.503906 307.0625 C 232.375 307.425781 233.226562 307.828125 234.058594 308.269531 C 234.890625 308.714844 235.699219 309.199219 236.484375 309.722656 C 237.269531 310.25 238.023438 310.808594 238.753906 311.40625 C 239.480469 312.003906 240.179688 312.636719 240.847656 313.304688 C 241.515625 313.972656 242.144531 314.671875 242.746094 315.398438 C 243.34375 316.128906 243.902344 316.882812 244.429688 317.667969 C 244.953125 318.453125 245.4375 319.261719 245.882812 320.09375 C 246.324219 320.925781 246.726562 321.777344 247.089844 322.648438 C 247.449219 323.519531 247.765625 324.40625 248.042969 325.308594 C 248.316406 326.210938 248.542969 327.125 248.726562 328.046875 C 248.910156 328.972656 249.050781 329.90625 249.140625 330.84375 C 249.234375 331.78125 249.28125 332.722656 249.28125 333.667969 Z M 249.28125 333.667969 " fill-opacity="1" fill-rule="nonzero"/></g><path fill="#5271ff" d="M 313.269531 188.089844 C 313.269531 189.609375 313.195312 191.125 313.042969 192.636719 C 312.894531 194.148438 312.671875 195.648438 312.375 197.140625 C 312.078125 198.628906 311.710938 200.101562 311.269531 201.554688 C 310.828125 203.007812 310.316406 204.4375 309.738281 205.839844 C 309.15625 207.246094 308.507812 208.617188 307.789062 209.957031 C 307.074219 211.296875 306.292969 212.597656 305.449219 213.859375 C 304.605469 215.125 303.703125 216.34375 302.738281 217.515625 C 301.773438 218.691406 300.757812 219.816406 299.683594 220.890625 C 298.609375 221.964844 297.484375 222.980469 296.308594 223.945312 C 295.136719 224.910156 293.917969 225.8125 292.652344 226.65625 C 291.390625 227.5 290.089844 228.28125 288.75 228.996094 C 287.410156 229.714844 286.039062 230.363281 284.632812 230.945312 C 283.230469 231.523438 281.800781 232.035156 280.347656 232.476562 C 278.894531 232.917969 277.421875 233.289062 275.933594 233.582031 C 274.441406 233.878906 272.941406 234.101562 271.429688 234.25 C 269.917969 234.402344 268.402344 234.476562 266.882812 234.476562 C 265.363281 234.476562 263.847656 234.402344 262.335938 234.25 C 260.824219 234.101562 259.324219 233.878906 257.835938 233.582031 C 256.34375 233.289062 254.871094 232.917969 253.417969 232.476562 C 251.964844 232.035156 250.535156 231.527344 249.132812 230.945312 C 247.730469 230.363281 246.359375 229.714844 245.019531 228.996094 C 243.679688 228.28125 242.375 227.5 241.113281 226.65625 C 239.851562 225.8125 238.632812 224.910156 237.457031 223.945312 C 236.285156 222.980469 235.160156 221.964844 234.085938 220.890625 C 233.011719 219.816406 231.992188 218.691406 231.027344 217.515625 C 230.0625 216.34375 229.160156 215.125 228.316406 213.859375 C 227.472656 212.597656 226.691406 211.296875 225.976562 209.957031 C 225.261719 208.617188 224.609375 207.246094 224.03125 205.839844 C 223.449219 204.4375 222.9375 203.007812 222.496094 201.554688 C 222.054688 200.101562 221.6875 198.628906 221.390625 197.140625 C 221.09375 195.648438 220.871094 194.148438 220.722656 192.636719 C 220.574219 191.125 220.5 189.609375 220.5 188.089844 C 220.5 186.570312 220.574219 185.054688 220.722656 183.542969 C 220.871094 182.03125 221.09375 180.53125 221.390625 179.042969 C 221.6875 177.550781 222.054688 176.078125 222.496094 174.625 C 222.9375 173.171875 223.449219 171.742188 224.03125 170.339844 C 224.609375 168.9375 225.261719 167.566406 225.976562 166.226562 C 226.691406 164.886719 227.472656 163.582031 228.316406 162.320312 C 229.160156 161.058594 230.0625 159.839844 231.027344 158.664062 C 231.992188 157.492188 233.011719 156.367188 234.085938 155.292969 C 235.160156 154.21875 236.285156 153.199219 237.457031 152.234375 C 238.632812 151.269531 239.851562 150.367188 241.113281 149.523438 C 242.375 148.679688 243.679688 147.898438 245.019531 147.183594 C 246.359375 146.46875 247.730469 145.816406 249.132812 145.238281 C 250.535156 144.65625 251.964844 144.144531 253.417969 143.703125 C 254.871094 143.261719 256.34375 142.894531 257.835938 142.597656 C 259.324219 142.300781 260.824219 142.078125 262.335938 141.929688 C 263.847656 141.78125 265.363281 141.707031 266.882812 141.707031 C 268.402344 141.707031 269.917969 141.78125 271.429688 141.929688 C 272.941406 142.078125 274.441406 142.300781 275.933594 142.597656 C 277.421875 142.894531 278.894531 143.261719 280.347656 143.703125 C 281.800781 144.144531 283.230469 144.65625 284.632812 145.238281 C 286.039062 145.816406 287.410156 146.46875 288.75 147.183594 C 290.089844 147.898438 291.390625 148.679688 292.652344 149.523438 C 293.917969 150.367188 295.136719 151.269531 296.308594 152.234375 C 297.484375 153.199219 298.609375 154.21875 299.683594 155.292969 C 300.757812 156.367188 301.773438 157.492188 302.738281 158.664062 C 303.703125 159.839844 304.605469 161.058594 305.449219 162.320312 C 306.292969 163.582031 307.074219 164.886719 307.789062 166.226562 C 308.507812 167.566406 309.15625 168.9375 309.738281 170.339844 C 310.316406 171.742188 310.828125 173.171875 311.269531 174.625 C 311.710938 176.078125 312.078125 177.550781 312.375 179.042969 C 312.671875 180.53125 312.894531 182.03125 313.042969 183.542969 C 313.195312 185.054688 313.269531 186.570312 313.269531 188.089844 Z M 313.269531 188.089844 " fill-opacity="1" fill-rule="nonzero"/><path fill="#5271ff" d="M 191.691406 64.925781 C 191.691406 65.871094 191.644531 66.8125 191.550781 67.75 C 191.460938 68.6875 191.320312 69.621094 191.136719 70.546875 C 190.953125 71.46875 190.722656 72.382812 190.449219 73.285156 C 190.175781 74.1875 189.859375 75.074219 189.5 75.945312 C 189.136719 76.816406 188.734375 77.667969 188.289062 78.5 C 187.84375 79.332031 187.359375 80.140625 186.835938 80.925781 C 186.3125 81.710938 185.753906 82.464844 185.152344 83.195312 C 184.554688 83.925781 183.921875 84.621094 183.257812 85.289062 C 182.589844 85.957031 181.890625 86.589844 181.164062 87.1875 C 180.433594 87.785156 179.675781 88.347656 178.894531 88.871094 C 178.109375 89.394531 177.300781 89.878906 176.46875 90.324219 C 175.636719 90.765625 174.785156 91.167969 173.914062 91.53125 C 173.042969 91.890625 172.15625 92.210938 171.253906 92.484375 C 170.351562 92.757812 169.4375 92.984375 168.511719 93.167969 C 167.585938 93.351562 166.65625 93.492188 165.71875 93.585938 C 164.777344 93.675781 163.839844 93.722656 162.894531 93.722656 C 161.953125 93.722656 161.011719 93.675781 160.074219 93.585938 C 159.132812 93.492188 158.203125 93.351562 157.277344 93.167969 C 156.351562 92.984375 155.4375 92.757812 154.535156 92.484375 C 153.632812 92.210938 152.746094 91.890625 151.875 91.53125 C 151.003906 91.171875 150.152344 90.765625 149.320312 90.324219 C 148.488281 89.878906 147.679688 89.394531 146.898438 88.871094 C 146.113281 88.347656 145.355469 87.785156 144.628906 87.1875 C 143.898438 86.589844 143.199219 85.957031 142.535156 85.289062 C 141.867188 84.621094 141.234375 83.925781 140.636719 83.195312 C 140.039062 82.464844 139.476562 81.710938 138.953125 80.925781 C 138.429688 80.140625 137.945312 79.332031 137.5 78.5 C 137.054688 77.667969 136.652344 76.816406 136.292969 75.945312 C 135.929688 75.074219 135.613281 74.1875 135.339844 73.285156 C 135.066406 72.382812 134.835938 71.46875 134.652344 70.546875 C 134.46875 69.621094 134.332031 68.6875 134.238281 67.75 C 134.144531 66.8125 134.097656 65.871094 134.097656 64.925781 C 134.097656 63.984375 134.144531 63.042969 134.238281 62.105469 C 134.332031 61.167969 134.46875 60.234375 134.652344 59.308594 C 134.835938 58.382812 135.066406 57.472656 135.339844 56.570312 C 135.613281 55.667969 135.929688 54.777344 136.292969 53.90625 C 136.652344 53.035156 137.054688 52.183594 137.5 51.351562 C 137.945312 50.523438 138.429688 49.714844 138.953125 48.929688 C 139.476562 48.144531 140.039062 47.390625 140.636719 46.660156 C 141.234375 45.929688 141.867188 45.234375 142.535156 44.566406 C 143.199219 43.898438 143.898438 43.265625 144.628906 42.667969 C 145.355469 42.070312 146.113281 41.507812 146.898438 40.984375 C 147.679688 40.460938 148.488281 39.976562 149.320312 39.53125 C 150.152344 39.085938 151.003906 38.683594 151.875 38.324219 C 152.746094 37.964844 153.632812 37.644531 154.535156 37.371094 C 155.4375 37.097656 156.351562 36.871094 157.277344 36.683594 C 158.203125 36.5 159.132812 36.363281 160.074219 36.269531 C 161.011719 36.179688 161.953125 36.132812 162.894531 36.132812 C 163.839844 36.132812 164.777344 36.179688 165.71875 36.269531 C 166.65625 36.363281 167.585938 36.5 168.511719 36.683594 C 169.4375 36.871094 170.351562 37.097656 171.253906 37.371094 C 172.15625 37.644531 173.042969 37.964844 173.914062 38.324219 C 174.785156 38.683594 175.636719 39.085938 176.46875 39.53125 C 177.300781 39.976562 178.109375 40.460938 178.894531 40.984375 C 179.675781 41.507812 180.433594 42.070312 181.164062 42.667969 C 181.890625 43.265625 182.589844 43.898438 183.257812 44.566406 C 183.921875 45.234375 184.554688 45.929688 185.152344 46.660156 C 185.753906 47.390625 186.3125 48.144531 186.835938 48.929688 C 187.359375 49.714844 187.84375 50.523438 188.289062 51.351562 C 188.734375 52.183594 189.136719 53.035156 189.5 53.90625 C 189.859375 54.777344 190.175781 55.667969 190.449219 56.570312 C 190.722656 57.472656 190.953125 58.382812 191.136719 59.308594 C 191.320312 60.234375 191.460938 61.167969 191.550781 62.105469 C 191.644531 63.042969 191.691406 63.984375 191.691406 64.925781 Z M 191.691406 64.925781 " fill-opacity="1" fill-rule="nonzero"/><path fill="#38b6ff" d="M 143.707031 304.871094 C 143.707031 306.339844 143.636719 307.800781 143.492188 309.261719 C 143.347656 310.71875 143.132812 312.167969 142.847656 313.609375 C 142.558594 315.046875 142.203125 316.46875 141.777344 317.871094 C 141.351562 319.273438 140.859375 320.65625 140.296875 322.007812 C 139.734375 323.363281 139.109375 324.6875 138.417969 325.984375 C 137.726562 327.277344 136.972656 328.53125 136.160156 329.753906 C 135.34375 330.972656 134.472656 332.148438 133.539062 333.28125 C 132.609375 334.417969 131.625 335.503906 130.589844 336.539062 C 129.550781 337.578125 128.464844 338.558594 127.332031 339.492188 C 126.199219 340.421875 125.023438 341.292969 123.804688 342.109375 C 122.582031 342.921875 121.328125 343.675781 120.03125 344.367188 C 118.738281 345.058594 117.414062 345.6875 116.058594 346.246094 C 114.703125 346.808594 113.324219 347.300781 111.921875 347.726562 C 110.519531 348.152344 109.097656 348.511719 107.660156 348.796875 C 106.21875 349.082031 104.769531 349.296875 103.3125 349.441406 C 101.851562 349.585938 100.386719 349.65625 98.921875 349.65625 C 97.453125 349.65625 95.992188 349.585938 94.53125 349.441406 C 93.070312 349.296875 91.621094 349.082031 90.183594 348.796875 C 88.746094 348.511719 87.324219 348.152344 85.921875 347.726562 C 84.515625 347.300781 83.136719 346.808594 81.78125 346.246094 C 80.425781 345.6875 79.101562 345.058594 77.808594 344.367188 C 76.515625 343.675781 75.257812 342.921875 74.039062 342.109375 C 72.820312 341.292969 71.644531 340.421875 70.511719 339.492188 C 69.375 338.558594 68.289062 337.578125 67.253906 336.539062 C 66.214844 335.503906 65.230469 334.417969 64.300781 333.28125 C 63.371094 332.148438 62.5 330.972656 61.683594 329.753906 C 60.867188 328.53125 60.117188 327.277344 59.425781 325.984375 C 58.734375 324.6875 58.105469 323.363281 57.546875 322.007812 C 56.984375 320.65625 56.488281 319.273438 56.0625 317.871094 C 55.636719 316.46875 55.28125 315.046875 54.996094 313.609375 C 54.710938 312.167969 54.496094 310.71875 54.351562 309.261719 C 54.207031 307.800781 54.136719 306.339844 54.136719 304.871094 C 54.136719 303.40625 54.207031 301.941406 54.351562 300.480469 C 54.496094 299.023438 54.710938 297.574219 54.996094 296.132812 C 55.28125 294.695312 55.636719 293.273438 56.0625 291.871094 C 56.488281 290.46875 56.984375 289.085938 57.546875 287.734375 C 58.105469 286.378906 58.734375 285.054688 59.425781 283.757812 C 60.117188 282.464844 60.867188 281.210938 61.683594 279.988281 C 62.5 278.769531 63.371094 277.59375 64.300781 276.460938 C 65.230469 275.324219 66.214844 274.242188 67.253906 273.203125 C 68.289062 272.164062 69.375 271.183594 70.511719 270.25 C 71.644531 269.320312 72.820312 268.449219 74.039062 267.632812 C 75.257812 266.820312 76.515625 266.066406 77.808594 265.375 C 79.101562 264.683594 80.425781 264.054688 81.78125 263.496094 C 83.136719 262.933594 84.515625 262.441406 85.921875 262.015625 C 87.324219 261.589844 88.746094 261.234375 90.183594 260.945312 C 91.621094 260.660156 93.070312 260.445312 94.53125 260.300781 C 95.992188 260.15625 97.453125 260.085938 98.921875 260.085938 C 100.386719 260.085938 101.851562 260.15625 103.3125 260.300781 C 104.769531 260.445312 106.21875 260.660156 107.660156 260.945312 C 109.097656 261.234375 110.519531 261.589844 111.921875 262.015625 C 113.324219 262.441406 114.703125 262.933594 116.058594 263.496094 C 117.414062 264.054688 118.738281 264.683594 120.03125 265.375 C 121.328125 266.066406 122.582031 266.820312 123.804688 267.632812 C 125.023438 268.449219 126.199219 269.320312 127.332031 270.25 C 128.464844 271.183594 129.550781 272.164062 130.589844 273.203125 C 131.625 274.242188 132.609375 275.324219 133.539062 276.460938 C 134.472656 277.59375 135.34375 278.769531 136.160156 279.988281 C 136.972656 281.210938 137.726562 282.464844 138.417969 283.757812 C 139.109375 285.054688 139.738281 286.378906 140.296875 287.734375 C 140.859375 289.085938 141.351562 290.46875 141.777344 291.871094 C 142.203125 293.273438 142.558594 294.695312 142.847656 296.132812 C 143.132812 297.574219 143.347656 299.023438 143.492188 300.480469 C 143.636719 301.941406 143.707031 303.40625 143.707031 304.871094 Z M 143.707031 304.871094 " fill-opacity="1" fill-rule="nonzero"/><path fill="#38b6ff" d="M 353.257812 268.875 C 353.257812 269.582031 353.222656 270.285156 353.152344 270.988281 C 353.082031 271.695312 352.980469 272.390625 352.839844 273.085938 C 352.703125 273.78125 352.53125 274.464844 352.328125 275.140625 C 352.121094 275.820312 351.882812 276.484375 351.613281 277.136719 C 351.34375 277.789062 351.039062 278.429688 350.707031 279.050781 C 350.375 279.675781 350.011719 280.28125 349.617188 280.871094 C 349.222656 281.457031 348.804688 282.027344 348.355469 282.570312 C 347.90625 283.117188 347.433594 283.640625 346.933594 284.140625 C 346.429688 284.640625 345.90625 285.117188 345.363281 285.566406 C 344.816406 286.015625 344.246094 286.433594 343.660156 286.828125 C 343.070312 287.21875 342.464844 287.582031 341.84375 287.917969 C 341.21875 288.25 340.578125 288.550781 339.925781 288.824219 C 339.273438 289.09375 338.609375 289.332031 337.929688 289.535156 C 337.253906 289.742188 336.570312 289.914062 335.875 290.050781 C 335.183594 290.191406 334.484375 290.292969 333.78125 290.363281 C 333.074219 290.433594 332.371094 290.46875 331.664062 290.46875 C 330.957031 290.46875 330.25 290.433594 329.546875 290.363281 C 328.84375 290.292969 328.144531 290.191406 327.449219 290.050781 C 326.757812 289.914062 326.070312 289.742188 325.394531 289.535156 C 324.71875 289.332031 324.054688 289.09375 323.398438 288.824219 C 322.746094 288.550781 322.109375 288.25 321.484375 287.917969 C 320.859375 287.582031 320.253906 287.21875 319.667969 286.828125 C 319.078125 286.433594 318.511719 286.015625 317.964844 285.566406 C 317.417969 285.117188 316.894531 284.640625 316.394531 284.140625 C 315.894531 283.640625 315.417969 283.117188 314.972656 282.570312 C 314.523438 282.027344 314.101562 281.457031 313.707031 280.871094 C 313.316406 280.28125 312.953125 279.675781 312.621094 279.050781 C 312.285156 278.429688 311.984375 277.789062 311.714844 277.136719 C 311.441406 276.484375 311.203125 275.820312 311 275.140625 C 310.792969 274.464844 310.621094 273.78125 310.484375 273.085938 C 310.347656 272.390625 310.242188 271.695312 310.171875 270.988281 C 310.105469 270.285156 310.070312 269.582031 310.070312 268.875 C 310.070312 268.167969 310.105469 267.460938 310.175781 266.757812 C 310.242188 266.054688 310.347656 265.355469 310.484375 264.660156 C 310.621094 263.96875 310.792969 263.28125 311 262.605469 C 311.203125 261.929688 311.441406 261.261719 311.714844 260.609375 C 311.984375 259.957031 312.285156 259.316406 312.621094 258.695312 C 312.953125 258.070312 313.316406 257.464844 313.707031 256.878906 C 314.101562 256.289062 314.523438 255.722656 314.972656 255.175781 C 315.417969 254.628906 315.894531 254.105469 316.394531 253.605469 C 316.894531 253.105469 317.417969 252.628906 317.964844 252.183594 C 318.511719 251.734375 319.078125 251.3125 319.667969 250.917969 C 320.253906 250.527344 320.859375 250.164062 321.484375 249.832031 C 322.109375 249.496094 322.746094 249.195312 323.398438 248.925781 C 324.054688 248.652344 324.71875 248.414062 325.394531 248.210938 C 326.070312 248.003906 326.757812 247.832031 327.449219 247.695312 C 328.144531 247.558594 328.84375 247.453125 329.546875 247.382812 C 330.25 247.316406 330.957031 247.28125 331.664062 247.28125 C 332.371094 247.28125 333.074219 247.316406 333.78125 247.382812 C 334.484375 247.453125 335.183594 247.558594 335.875 247.695312 C 336.570312 247.832031 337.253906 248.003906 337.929688 248.210938 C 338.609375 248.414062 339.273438 248.652344 339.925781 248.925781 C 340.578125 249.195312 341.21875 249.496094 341.84375 249.828125 C 342.464844 250.164062 343.070312 250.527344 343.660156 250.917969 C 344.246094 251.3125 344.816406 251.734375 345.363281 252.183594 C 345.90625 252.628906 346.429688 253.105469 346.933594 253.605469 C 347.433594 254.105469 347.90625 254.628906 348.355469 255.175781 C 348.804688 255.722656 349.222656 256.289062 349.617188 256.875 C 350.011719 257.464844 350.375 258.070312 350.707031 258.695312 C 351.039062 259.316406 351.34375 259.957031 351.613281 260.609375 C 351.882812 261.261719 352.121094 261.929688 352.328125 262.605469 C 352.53125 263.28125 352.703125 263.96875 352.839844 264.660156 C 352.980469 265.355469 353.082031 266.054688 353.152344 266.757812 C 353.222656 267.460938 353.257812 268.167969 353.257812 268.875 Z M 353.257812 268.875 " fill-opacity="1" fill-rule="nonzero"/><g clip-path="url(#ebb566cec0)"><path fill="#38b6ff" d="M 79.71875 31.710938 C 79.71875 32.339844 79.6875 32.96875 79.628906 33.59375 C 79.566406 34.21875 79.472656 34.839844 79.351562 35.457031 C 79.226562 36.074219 79.074219 36.683594 78.894531 37.285156 C 78.710938 37.886719 78.5 38.476562 78.257812 39.058594 C 78.019531 39.640625 77.75 40.207031 77.453125 40.761719 C 77.15625 41.316406 76.832031 41.855469 76.484375 42.378906 C 76.132812 42.902344 75.761719 43.40625 75.363281 43.894531 C 74.960938 44.378906 74.539062 44.84375 74.097656 45.289062 C 73.652344 45.734375 73.1875 46.15625 72.699219 46.554688 C 72.214844 46.953125 71.710938 47.328125 71.1875 47.675781 C 70.664062 48.027344 70.125 48.347656 69.570312 48.644531 C 69.015625 48.941406 68.449219 49.210938 67.867188 49.449219 C 67.285156 49.691406 66.695312 49.902344 66.09375 50.085938 C 65.492188 50.269531 64.882812 50.421875 64.265625 50.542969 C 63.648438 50.667969 63.027344 50.757812 62.402344 50.820312 C 61.773438 50.882812 61.148438 50.914062 60.519531 50.914062 C 59.890625 50.914062 59.261719 50.882812 58.636719 50.820312 C 58.011719 50.757812 57.390625 50.667969 56.773438 50.542969 C 56.15625 50.421875 55.546875 50.269531 54.945312 50.085938 C 54.34375 49.902344 53.75 49.691406 53.171875 49.449219 C 52.589844 49.210938 52.023438 48.941406 51.46875 48.644531 C 50.914062 48.347656 50.375 48.027344 49.851562 47.675781 C 49.328125 47.328125 48.824219 46.953125 48.335938 46.554688 C 47.851562 46.15625 47.386719 45.734375 46.941406 45.289062 C 46.496094 44.84375 46.074219 44.378906 45.675781 43.894531 C 45.277344 43.40625 44.902344 42.902344 44.554688 42.378906 C 44.203125 41.855469 43.882812 41.316406 43.585938 40.761719 C 43.289062 40.207031 43.019531 39.640625 42.777344 39.058594 C 42.539062 38.476562 42.328125 37.886719 42.144531 37.285156 C 41.960938 36.683594 41.808594 36.074219 41.6875 35.457031 C 41.5625 34.839844 41.472656 34.21875 41.410156 33.59375 C 41.347656 32.96875 41.316406 32.339844 41.316406 31.710938 C 41.316406 31.082031 41.347656 30.457031 41.410156 29.828125 C 41.472656 29.203125 41.5625 28.582031 41.6875 27.964844 C 41.808594 27.347656 41.960938 26.738281 42.144531 26.136719 C 42.328125 25.535156 42.539062 24.945312 42.777344 24.363281 C 43.019531 23.78125 43.289062 23.214844 43.585938 22.660156 C 43.882812 22.105469 44.203125 21.566406 44.554688 21.042969 C 44.902344 20.519531 45.277344 20.015625 45.675781 19.53125 C 46.074219 19.042969 46.496094 18.578125 46.941406 18.132812 C 47.386719 17.6875 47.851562 17.265625 48.335938 16.867188 C 48.824219 16.46875 49.328125 16.09375 49.851562 15.746094 C 50.375 15.398438 50.914062 15.074219 51.46875 14.777344 C 52.023438 14.480469 52.589844 14.210938 53.171875 13.972656 C 53.75 13.730469 54.34375 13.519531 54.945312 13.335938 C 55.546875 13.152344 56.15625 13 56.773438 12.878906 C 57.390625 12.757812 58.011719 12.664062 58.636719 12.601562 C 59.261719 12.539062 59.890625 12.511719 60.519531 12.511719 C 61.148438 12.511719 61.773438 12.539062 62.402344 12.601562 C 63.027344 12.664062 63.648438 12.757812 64.265625 12.878906 C 64.882812 13 65.492188 13.152344 66.09375 13.335938 C 66.695312 13.519531 67.285156 13.730469 67.867188 13.972656 C 68.449219 14.210938 69.015625 14.480469 69.570312 14.777344 C 70.125 15.074219 70.664062 15.398438 71.1875 15.746094 C 71.710938 16.09375 72.214844 16.46875 72.699219 16.867188 C 73.1875 17.265625 73.652344 17.6875 74.097656 18.132812 C 74.539062 18.578125 74.960938 19.042969 75.363281 19.53125 C 75.761719 20.015625 76.132812 20.519531 76.484375 21.042969 C 76.832031 21.566406 77.15625 22.105469 77.453125 22.660156 C 77.75 23.214844 78.019531 23.78125 78.257812 24.363281 C 78.5 24.945312 78.710938 25.535156 78.894531 26.136719 C 79.074219 26.738281 79.226562 27.347656 79.351562 27.964844 C 79.472656 28.582031 79.566406 29.203125 79.628906 29.828125 C 79.6875 30.457031 79.71875 31.082031 79.71875 31.710938 Z M 79.71875 31.710938 " fill-opacity="1" fill-rule="nonzero"/></g><path fill="#385587" d="M 162.894531 188.089844 C 162.894531 189.035156 162.800781 189.972656 162.617188 190.898438 C 162.433594 191.824219 162.160156 192.722656 161.800781 193.597656 C 161.4375 194.46875 160.996094 195.300781 160.46875 196.085938 C 159.945312 196.871094 159.347656 197.597656 158.679688 198.265625 C 158.011719 198.933594 157.285156 199.53125 156.5 200.054688 C 155.714844 200.582031 154.882812 201.023438 154.011719 201.386719 C 153.136719 201.746094 152.238281 202.019531 151.3125 202.203125 C 150.382812 202.390625 149.449219 202.480469 148.503906 202.480469 C 147.558594 202.480469 146.625 202.390625 145.695312 202.203125 C 144.769531 202.019531 143.871094 201.746094 142.996094 201.386719 C 142.125 201.023438 141.292969 200.582031 140.507812 200.054688 C 139.722656 199.53125 138.996094 198.933594 138.328125 198.265625 C 137.660156 197.597656 137.0625 196.871094 136.539062 196.085938 C 136.011719 195.300781 135.570312 194.46875 135.207031 193.597656 C 134.847656 192.722656 134.574219 191.824219 134.390625 190.898438 C 134.203125 189.972656 134.113281 189.035156 134.113281 188.089844 C 134.113281 187.144531 134.203125 186.210938 134.390625 185.28125 C 134.574219 184.355469 134.847656 183.457031 135.207031 182.582031 C 135.570312 181.710938 136.011719 180.878906 136.539062 180.09375 C 137.0625 179.308594 137.660156 178.582031 138.328125 177.914062 C 138.996094 177.246094 139.722656 176.648438 140.507812 176.125 C 141.292969 175.601562 142.125 175.15625 142.996094 174.796875 C 143.871094 174.433594 144.769531 174.160156 145.695312 173.976562 C 146.625 173.792969 147.558594 173.699219 148.503906 173.699219 C 149.449219 173.699219 150.382812 173.792969 151.3125 173.976562 C 152.238281 174.160156 153.136719 174.433594 154.011719 174.796875 C 154.882812 175.15625 155.714844 175.601562 156.5 176.125 C 157.285156 176.648438 158.011719 177.246094 158.679688 177.914062 C 159.347656 178.582031 159.945312 179.308594 160.46875 180.09375 C 160.996094 180.882812 161.4375 181.710938 161.800781 182.582031 C 162.160156 183.457031 162.433594 184.355469 162.617188 185.28125 C 162.800781 186.210938 162.894531 187.144531 162.894531 188.089844 Z M 162.894531 188.089844 " fill-opacity="1" fill-rule="nonzero"/><path fill="#38b6ff" d="M 320.914062 69 C 320.914062 70.296875 320.851562 71.589844 320.722656 72.878906 C 320.59375 74.167969 320.40625 75.449219 320.152344 76.722656 C 319.898438 77.992188 319.585938 79.25 319.207031 80.488281 C 318.832031 81.730469 318.394531 82.949219 317.898438 84.148438 C 317.402344 85.34375 316.851562 86.515625 316.238281 87.660156 C 315.628906 88.800781 314.960938 89.914062 314.242188 90.992188 C 313.523438 92.070312 312.75 93.109375 311.929688 94.113281 C 311.105469 95.113281 310.234375 96.074219 309.320312 96.988281 C 308.402344 97.90625 307.441406 98.777344 306.441406 99.597656 C 305.4375 100.421875 304.398438 101.191406 303.320312 101.914062 C 302.242188 102.632812 301.132812 103.296875 299.988281 103.910156 C 298.84375 104.519531 297.675781 105.074219 296.476562 105.570312 C 295.277344 106.066406 294.058594 106.503906 292.820312 106.878906 C 291.578125 107.257812 290.324219 107.570312 289.050781 107.824219 C 287.777344 108.078125 286.5 108.265625 285.207031 108.394531 C 283.917969 108.519531 282.625 108.585938 281.328125 108.585938 C 280.03125 108.585938 278.738281 108.519531 277.449219 108.394531 C 276.15625 108.265625 274.878906 108.078125 273.605469 107.824219 C 272.332031 107.570312 271.078125 107.257812 269.835938 106.878906 C 268.597656 106.503906 267.378906 106.066406 266.179688 105.570312 C 264.980469 105.074219 263.8125 104.519531 262.667969 103.910156 C 261.523438 103.296875 260.414062 102.632812 259.335938 101.914062 C 258.257812 101.191406 257.21875 100.421875 256.214844 99.597656 C 255.214844 98.777344 254.253906 97.90625 253.335938 96.988281 C 252.421875 96.074219 251.550781 95.113281 250.726562 94.113281 C 249.90625 93.109375 249.132812 92.070312 248.414062 90.992188 C 247.695312 89.914062 247.027344 88.800781 246.417969 87.660156 C 245.804688 86.515625 245.253906 85.34375 244.757812 84.148438 C 244.261719 82.949219 243.824219 81.730469 243.449219 80.488281 C 243.070312 79.25 242.757812 77.992188 242.503906 76.722656 C 242.25 75.449219 242.0625 74.167969 241.933594 72.878906 C 241.804688 71.589844 241.742188 70.296875 241.742188 69 C 241.742188 67.703125 241.804688 66.410156 241.933594 65.117188 C 242.0625 63.828125 242.25 62.546875 242.503906 61.277344 C 242.757812 60.003906 243.070312 58.75 243.449219 57.507812 C 243.824219 56.265625 244.261719 55.046875 244.757812 53.851562 C 245.253906 52.652344 245.804688 51.480469 246.417969 50.339844 C 247.027344 49.195312 247.695312 48.085938 248.414062 47.007812 C 249.132812 45.929688 249.90625 44.886719 250.726562 43.886719 C 251.550781 42.882812 252.421875 41.925781 253.335938 41.007812 C 254.253906 40.089844 255.214844 39.222656 256.214844 38.398438 C 257.21875 37.578125 258.257812 36.804688 259.335938 36.085938 C 260.414062 35.363281 261.523438 34.699219 262.667969 34.085938 C 263.8125 33.476562 264.980469 32.921875 266.179688 32.425781 C 267.378906 31.929688 268.597656 31.496094 269.835938 31.117188 C 271.078125 30.742188 272.332031 30.425781 273.605469 30.175781 C 274.878906 29.921875 276.15625 29.730469 277.449219 29.605469 C 278.738281 29.476562 280.03125 29.414062 281.328125 29.414062 C 282.625 29.414062 283.917969 29.476562 285.207031 29.605469 C 286.5 29.730469 287.777344 29.921875 289.050781 30.175781 C 290.324219 30.425781 291.578125 30.742188 292.820312 31.117188 C 294.058594 31.496094 295.277344 31.929688 296.476562 32.425781 C 297.675781 32.921875 298.84375 33.476562 299.988281 34.085938 C 301.132812 34.699219 302.242188 35.363281 303.320312 36.085938 C 304.398438 36.804688 305.4375 37.578125 306.441406 38.398438 C 307.441406 39.222656 308.402344 40.089844 309.320312 41.007812 C 310.234375 41.925781 311.105469 42.882812 311.929688 43.886719 C 312.75 44.886719 313.523438 45.929688 314.242188 47.007812 C 314.960938 48.085938 315.628906 49.195312 316.238281 50.339844 C 316.851562 51.480469 317.402344 52.652344 317.898438 53.851562 C 318.394531 55.046875 318.832031 56.265625 319.207031 57.507812 C 319.585938 58.75 319.898438 60.003906 320.152344 61.277344 C 320.40625 62.546875 320.59375 63.828125 320.722656 65.117188 C 320.851562 66.410156 320.914062 67.703125 320.914062 69 Z M 320.914062 69 " fill-opacity="1" fill-rule="nonzero"/><g clip-path="url(#bf20e788f9)"><path fill="#38b6ff" d="M 359.316406 161.164062 C 359.316406 161.792969 359.285156 162.417969 359.222656 163.046875 C 359.164062 163.671875 359.070312 164.292969 358.949219 164.910156 C 358.824219 165.527344 358.671875 166.136719 358.488281 166.738281 C 358.308594 167.339844 358.09375 167.929688 357.855469 168.511719 C 357.613281 169.09375 357.34375 169.660156 357.050781 170.214844 C 356.753906 170.769531 356.429688 171.308594 356.082031 171.832031 C 355.730469 172.355469 355.355469 172.859375 354.957031 173.34375 C 354.558594 173.832031 354.136719 174.296875 353.691406 174.742188 C 353.246094 175.183594 352.78125 175.605469 352.296875 176.003906 C 351.808594 176.40625 351.304688 176.777344 350.78125 177.128906 C 350.257812 177.476562 349.722656 177.800781 349.167969 178.097656 C 348.613281 178.394531 348.042969 178.660156 347.464844 178.902344 C 346.882812 179.144531 346.289062 179.355469 345.6875 179.539062 C 345.085938 179.71875 344.476562 179.871094 343.859375 179.996094 C 343.242188 180.117188 342.621094 180.210938 341.996094 180.273438 C 341.371094 180.332031 340.742188 180.363281 340.113281 180.363281 C 339.484375 180.363281 338.859375 180.332031 338.234375 180.273438 C 337.605469 180.210938 336.984375 180.117188 336.367188 179.996094 C 335.753906 179.871094 335.144531 179.71875 334.539062 179.539062 C 333.9375 179.355469 333.347656 179.144531 332.765625 178.902344 C 332.1875 178.660156 331.617188 178.394531 331.0625 178.097656 C 330.507812 177.800781 329.96875 177.476562 329.445312 177.128906 C 328.925781 176.777344 328.417969 176.40625 327.933594 176.007812 C 327.449219 175.605469 326.980469 175.183594 326.539062 174.742188 C 326.09375 174.296875 325.671875 173.832031 325.273438 173.34375 C 324.871094 172.859375 324.5 172.355469 324.148438 171.832031 C 323.800781 171.308594 323.476562 170.769531 323.179688 170.214844 C 322.882812 169.660156 322.617188 169.09375 322.375 168.511719 C 322.132812 167.929688 321.921875 167.339844 321.742188 166.738281 C 321.558594 166.136719 321.40625 165.527344 321.28125 164.910156 C 321.160156 164.292969 321.066406 163.671875 321.007812 163.046875 C 320.945312 162.417969 320.914062 161.792969 320.914062 161.164062 C 320.914062 160.535156 320.945312 159.90625 321.007812 159.28125 C 321.066406 158.65625 321.160156 158.035156 321.28125 157.417969 C 321.40625 156.800781 321.558594 156.191406 321.742188 155.589844 C 321.921875 154.988281 322.132812 154.394531 322.375 153.816406 C 322.617188 153.234375 322.882812 152.667969 323.179688 152.113281 C 323.476562 151.558594 323.800781 151.019531 324.148438 150.496094 C 324.5 149.972656 324.875 149.46875 325.273438 148.980469 C 325.671875 148.496094 326.09375 148.03125 326.539062 147.585938 C 326.980469 147.140625 327.449219 146.71875 327.933594 146.320312 C 328.417969 145.921875 328.925781 145.546875 329.445312 145.199219 C 329.96875 144.847656 330.507812 144.523438 331.0625 144.230469 C 331.617188 143.933594 332.1875 143.664062 332.765625 143.421875 C 333.347656 143.183594 333.9375 142.972656 334.539062 142.789062 C 335.144531 142.605469 335.753906 142.453125 336.367188 142.332031 C 336.984375 142.207031 337.605469 142.117188 338.234375 142.054688 C 338.859375 141.992188 339.484375 141.960938 340.113281 141.960938 C 340.742188 141.960938 341.371094 141.992188 341.996094 142.054688 C 342.621094 142.117188 343.242188 142.207031 343.859375 142.332031 C 344.476562 142.453125 345.085938 142.605469 345.6875 142.789062 C 346.289062 142.972656 346.882812 143.183594 347.464844 143.421875 C 348.042969 143.664062 348.613281 143.933594 349.167969 144.230469 C 349.722656 144.523438 350.257812 144.847656 350.78125 145.199219 C 351.304688 145.546875 351.808594 145.921875 352.296875 146.320312 C 352.78125 146.71875 353.246094 147.140625 353.691406 147.585938 C 354.136719 148.03125 354.558594 148.496094 354.957031 148.980469 C 355.355469 149.46875 355.730469 149.972656 356.082031 150.496094 C 356.429688 151.019531 356.753906 151.558594 357.050781 152.113281 C 357.34375 152.667969 357.613281 153.234375 357.855469 153.816406 C 358.09375 154.394531 358.308594 154.988281 358.488281 155.589844 C 358.671875 156.191406 358.824219 156.800781 358.949219 157.417969 C 359.070312 158.035156 359.164062 158.65625 359.222656 159.28125 C 359.285156 159.90625 359.316406 160.535156 359.316406 161.164062 Z M 359.316406 161.164062 " fill-opacity="1" fill-rule="nonzero"/></g><g clip-path="url(#5ee629ed63)"><path fill="#100f0d" d="M 325.285156 352.992188 L 340.464844 335.738281 L 342.890625 332.984375 L 342.992188 332.867188 C 343.3125 332.503906 343.757812 332.320312 344.203125 332.320312 C 344.507812 332.320312 344.8125 332.40625 345.078125 332.582031 C 345.144531 332.621094 345.210938 332.671875 345.269531 332.722656 L 346.511719 333.816406 L 347.292969 334.507812 C 347.589844 334.765625 347.769531 335.113281 347.824219 335.496094 C 347.832031 335.535156 347.835938 335.578125 347.835938 335.617188 C 347.863281 336.046875 347.722656 336.464844 347.4375 336.789062 L 347.390625 336.847656 L 344.964844 339.601562 L 329.894531 356.730469 L 328.417969 358.402344 C 328.132812 358.730469 327.738281 358.921875 327.308594 358.949219 C 327.265625 358.953125 327.226562 358.953125 327.183594 358.953125 C 327.023438 358.953125 326.867188 358.925781 326.71875 358.878906 L 325.378906 357.792969 L 324.214844 356.851562 L 324.117188 356.761719 C 324.054688 356.707031 323.996094 356.648438 323.945312 356.585938 C 323.441406 355.984375 323.441406 355.089844 323.96875 354.484375 Z M 334.457031 365.890625 L 329.910156 361.875 C 330.007812 361.824219 330.101562 361.761719 330.195312 361.695312 C 330.550781 361.453125 330.875 361.164062 331.167969 360.832031 L 350.175781 339.234375 L 350.191406 339.214844 C 350.558594 338.796875 350.851562 338.332031 351.070312 337.835938 L 355.613281 341.851562 C 356.28125 342.4375 356.34375 343.460938 355.757812 344.128906 L 336.734375 365.746094 C 336.148438 366.414062 335.125 366.476562 334.457031 365.890625 Z M 358.039062 339.097656 L 351.292969 333.140625 C 351.023438 332.90625 350.738281 332.699219 350.4375 332.527344 C 350.226562 332.25 349.984375 331.988281 349.71875 331.753906 L 347.695312 329.96875 C 345.511719 328.042969 342.167969 328.25 340.242188 330.441406 L 340.105469 330.597656 L 326.179688 318.644531 L 303.574219 318.644531 L 269.433594 322.015625 L 269.054688 322.261719 C 268.730469 322.480469 265.855469 324.460938 265.84375 327.472656 C 265.835938 329.363281 266.914062 331.046875 269.042969 332.480469 C 269.984375 333.109375 272.84375 335.027344 287.535156 335.539062 C 294.597656 335.78125 301.085938 335.574219 301.152344 335.574219 L 301.03125 331.902344 C 291.34375 332.214844 274.648438 331.820312 271.085938 329.429688 C 270.5 329.035156 269.511719 328.257812 269.511719 327.492188 C 269.507812 326.808594 270.222656 326.019531 270.753906 325.574219 L 303.667969 322.316406 L 324.824219 322.316406 L 337.679688 333.351562 L 322.429688 350.679688 L 313.203125 343.195312 L 283.761719 347.148438 L 238.191406 332.332031 L 223.765625 323.882812 C 224.0625 323.253906 224.523438 322.566406 225.179688 322.199219 C 225.933594 321.769531 226.898438 321.773438 228.132812 322.214844 C 234.050781 324.316406 248.0625 329.390625 248.203125 329.441406 L 248.523438 329.554688 L 262.652344 329.25 L 262.574219 325.578125 L 249.128906 325.871094 C 246.988281 325.097656 234.789062 320.679688 229.359375 318.75 C 226.519531 317.742188 224.519531 318.339844 223.335938 319.019531 C 220.527344 320.632812 219.820312 323.996094 219.75 324.371094 L 219.511719 325.644531 L 236.683594 335.703125 L 283.421875 350.898438 L 312.121094 347.046875 L 320.257812 353.640625 C 319.484375 355.648438 319.988281 358.015625 321.691406 359.519531 L 323.714844 361.304688 C 323.980469 361.539062 324.265625 361.742188 324.566406 361.917969 C 324.777344 362.195312 325.019531 362.453125 325.289062 362.695312 L 332.035156 368.644531 C 333.035156 369.527344 334.285156 369.964844 335.523438 369.964844 C 336.988281 369.964844 338.445312 369.359375 339.484375 368.175781 L 358.507812 346.558594 C 360.433594 344.367188 360.222656 341.023438 358.039062 339.097656 " fill-opacity="1" fill-rule="nonzero"/></g><path fill="#100f0d" d="M 327.589844 278.140625 C 327.101562 277.253906 325.984375 276.929688 325.097656 277.421875 C 324.210938 277.910156 323.890625 279.027344 324.378906 279.914062 C 324.890625 280.84375 325.34375 281.824219 325.71875 282.824219 C 325.996094 283.558594 326.695312 284.011719 327.433594 284.011719 C 327.652344 284.011719 327.871094 283.972656 328.085938 283.890625 C 329.03125 283.53125 329.507812 282.472656 329.148438 281.523438 C 328.710938 280.359375 328.183594 279.222656 327.589844 278.140625 " fill-opacity="1" fill-rule="nonzero"/><path fill="#100f0d" d="M 323.726562 272.839844 C 316.507812 265.160156 305.144531 262.054688 294.074219 264.734375 C 293.089844 264.972656 292.484375 265.964844 292.722656 266.949219 C 292.960938 267.933594 293.949219 268.542969 294.933594 268.300781 C 304.726562 265.933594 314.738281 268.636719 321.058594 275.359375 C 321.417969 275.742188 321.90625 275.9375 322.394531 275.9375 C 322.84375 275.9375 323.296875 275.769531 323.648438 275.4375 C 324.386719 274.742188 324.421875 273.578125 323.726562 272.839844 " fill-opacity="1" fill-rule="nonzero"/><g clip-path="url(#be595d847d)"><path fill="#100f0d" d="M 207.230469 305.703125 C 207.101562 305.269531 207.019531 304.820312 206.992188 304.351562 L 345.476562 304.351562 C 345.292969 307.507812 342.671875 310.015625 339.472656 310.015625 L 212.996094 310.015625 C 210.269531 310.015625 207.96875 308.195312 207.230469 305.703125 Z M 275.523438 251.847656 C 276.011719 251.835938 276.496094 251.832031 276.980469 251.832031 C 294.808594 251.832031 311.574219 256.941406 324.332031 266.292969 C 336.820312 275.445312 344.007812 287.609375 344.691406 300.679688 L 208.007812 300.679688 C 210.046875 273.992188 239.394531 252.40625 275.523438 251.847656 Z M 273.964844 240.132812 C 274.84375 239.226562 276.019531 238.71875 277.277344 238.699219 C 277.300781 238.699219 277.328125 238.699219 277.351562 238.699219 C 279.917969 238.699219 282.027344 240.769531 282.066406 243.347656 C 282.085938 244.609375 281.613281 245.800781 280.738281 246.707031 C 279.859375 247.613281 278.683594 248.121094 277.425781 248.140625 C 276.164062 248.160156 274.972656 247.6875 274.070312 246.8125 C 273.164062 245.933594 272.65625 244.757812 272.636719 243.496094 C 272.617188 242.234375 273.089844 241.039062 273.964844 240.132812 Z M 349.152344 303.996094 L 349.152344 300.679688 L 348.363281 300.679688 C 348.03125 293.675781 346.003906 286.917969 342.320312 280.558594 C 338.554688 274.0625 333.230469 268.265625 326.496094 263.328125 C 314.832031 254.78125 300.011719 249.613281 284.078125 248.425781 C 285.179688 246.949219 285.761719 245.164062 285.734375 243.289062 C 285.660156 238.664062 281.835938 234.953125 277.222656 235.027344 C 274.984375 235.0625 272.890625 235.96875 271.332031 237.578125 C 269.773438 239.1875 268.9375 241.308594 268.96875 243.550781 C 268.996094 245.3125 269.5625 246.980469 270.585938 248.375 C 253.273438 249.523438 237.210938 255.3125 224.929688 264.910156 C 218.355469 270.054688 213.214844 276.015625 209.648438 282.628906 C 206.539062 288.398438 204.757812 294.457031 204.328125 300.679688 L 203.316406 300.679688 L 203.316406 303.996094 C 203.316406 309.339844 207.660156 313.6875 212.996094 313.6875 L 339.472656 313.6875 C 344.8125 313.6875 349.152344 309.339844 349.152344 303.996094 " fill-opacity="1" fill-rule="nonzero"/></g><g clip-path="url(#c5e298da78)"><path fill="#000000" d="M 94.667969 145.289062 C 96.632812 145.289062 98.59375 145.195312 100.550781 145 C 102.503906 144.808594 104.445312 144.519531 106.375 144.136719 C 108.300781 143.753906 110.203125 143.277344 112.085938 142.707031 C 113.964844 142.136719 115.8125 141.476562 117.628906 140.722656 C 119.445312 139.972656 121.21875 139.132812 122.953125 138.207031 C 124.683594 137.28125 126.367188 136.269531 128.003906 135.179688 C 129.636719 134.085938 131.210938 132.917969 132.730469 131.671875 C 134.25 130.425781 135.707031 129.105469 137.09375 127.71875 C 138.484375 126.328125 139.800781 124.875 141.050781 123.355469 C 142.296875 121.835938 143.464844 120.257812 144.554688 118.625 C 145.648438 116.992188 146.65625 115.308594 147.582031 113.574219 C 148.511719 111.839844 149.347656 110.066406 150.101562 108.25 C 150.851562 106.4375 151.515625 104.589844 152.085938 102.707031 C 152.65625 100.828125 153.132812 98.921875 153.515625 96.996094 C 153.898438 95.070312 154.1875 93.128906 154.378906 91.171875 C 154.570312 89.214844 154.667969 87.253906 154.667969 85.289062 C 154.667969 83.324219 154.570312 81.367188 154.378906 79.410156 C 154.1875 77.453125 153.898438 75.511719 153.515625 73.585938 C 153.132812 71.65625 152.65625 69.753906 152.085938 67.875 C 151.515625 65.992188 150.851562 64.144531 150.101562 62.328125 C 149.347656 60.515625 148.511719 58.738281 147.582031 57.007812 C 146.65625 55.273438 145.648438 53.589844 144.554688 51.957031 C 143.464844 50.324219 142.296875 48.746094 141.050781 47.226562 C 139.800781 45.707031 138.484375 44.253906 137.09375 42.863281 C 135.707031 41.476562 134.25 40.15625 132.730469 38.910156 C 131.210938 37.664062 129.636719 36.496094 128.003906 35.402344 C 126.367188 34.3125 124.683594 33.300781 122.953125 32.375 C 121.21875 31.449219 119.445312 30.609375 117.628906 29.859375 C 115.8125 29.105469 113.964844 28.445312 112.085938 27.875 C 110.203125 27.304688 108.300781 26.828125 106.375 26.445312 C 104.445312 26.058594 102.503906 25.773438 100.550781 25.578125 C 98.59375 25.386719 96.632812 25.289062 94.667969 25.289062 C 92.703125 25.289062 90.742188 25.386719 88.789062 25.578125 C 86.832031 25.773438 84.890625 26.058594 82.960938 26.445312 C 81.035156 26.828125 79.132812 27.304688 77.25 27.875 C 75.371094 28.445312 73.523438 29.105469 71.707031 29.859375 C 69.890625 30.609375 68.117188 31.449219 66.382812 32.375 C 64.652344 33.300781 62.96875 34.3125 61.335938 35.402344 C 59.699219 36.496094 58.125 37.664062 56.605469 38.910156 C 55.085938 40.15625 53.632812 41.476562 52.242188 42.863281 C 50.851562 44.253906 49.535156 45.707031 48.289062 47.226562 C 47.039062 48.746094 45.871094 50.324219 44.78125 51.957031 C 43.6875 53.589844 42.679688 55.273438 41.753906 57.007812 C 40.828125 58.738281 39.988281 60.515625 39.234375 62.328125 C 38.484375 64.144531 37.820312 65.992188 37.25 67.875 C 36.679688 69.753906 36.203125 71.65625 35.820312 73.585938 C 35.4375 75.511719 35.148438 77.453125 34.957031 79.410156 C 34.765625 81.367188 34.667969 83.324219 34.667969 85.289062 C 34.667969 87.253906 34.765625 89.214844 34.957031 91.171875 C 35.148438 93.128906 35.4375 95.070312 35.820312 96.996094 C 36.203125 98.921875 36.679688 100.828125 37.25 102.707031 C 37.820312 104.589844 38.484375 106.4375 39.234375 108.25 C 39.988281 110.066406 40.828125 111.839844 41.753906 113.574219 C 42.679688 115.308594 43.6875 116.992188 44.78125 118.625 C 45.871094 120.257812 47.039062 121.835938 48.289062 123.355469 C 49.535156 124.875 50.851562 126.328125 52.242188 127.71875 C 53.632812 129.105469 55.085938 130.425781 56.605469 131.671875 C 58.125 132.917969 59.699219 134.085938 61.335938 135.179688 C 62.96875 136.269531 64.652344 137.28125 66.382812 138.207031 C 68.117188 139.132812 69.890625 139.972656 71.707031 140.722656 C 73.523438 141.476562 75.371094 142.136719 77.25 142.707031 C 79.132812 143.277344 81.035156 143.753906 82.960938 144.136719 C 84.890625 144.519531 86.832031 144.808594 88.789062 145 C 90.742188 145.195312 92.703125 145.289062 94.667969 145.289062 Z M 94.667969 29.289062 C 96.503906 29.289062 98.332031 29.378906 100.15625 29.558594 C 101.984375 29.738281 103.792969 30.007812 105.59375 30.367188 C 107.390625 30.722656 109.167969 31.167969 110.925781 31.703125 C 112.679688 32.234375 114.402344 32.851562 116.097656 33.554688 C 117.792969 34.253906 119.449219 35.039062 121.066406 35.902344 C 122.683594 36.769531 124.253906 37.710938 125.78125 38.726562 C 127.304688 39.746094 128.777344 40.839844 130.195312 42.003906 C 131.613281 43.164062 132.96875 44.394531 134.265625 45.691406 C 135.5625 46.988281 136.792969 48.347656 137.957031 49.765625 C 139.121094 51.183594 140.210938 52.652344 141.230469 54.179688 C 142.25 55.703125 143.191406 57.273438 144.054688 58.890625 C 144.921875 60.511719 145.703125 62.164062 146.40625 63.859375 C 147.105469 65.554688 147.722656 67.28125 148.257812 69.035156 C 148.789062 70.789062 149.234375 72.566406 149.59375 74.367188 C 149.949219 76.164062 150.21875 77.976562 150.398438 79.800781 C 150.578125 81.628906 150.667969 83.457031 150.667969 85.289062 C 150.667969 87.125 150.578125 88.953125 150.398438 90.78125 C 150.21875 92.605469 149.949219 94.417969 149.59375 96.214844 C 149.234375 98.015625 148.789062 99.792969 148.257812 101.546875 C 147.722656 103.300781 147.105469 105.027344 146.40625 106.722656 C 145.703125 108.414062 144.921875 110.070312 144.054688 111.6875 C 143.191406 113.304688 142.25 114.878906 141.230469 116.402344 C 140.210938 117.925781 139.121094 119.398438 137.957031 120.816406 C 136.792969 122.234375 135.5625 123.59375 134.265625 124.890625 C 132.96875 126.1875 131.613281 127.414062 130.195312 128.578125 C 128.777344 129.742188 127.304688 130.835938 125.78125 131.851562 C 124.253906 132.871094 122.683594 133.8125 121.066406 134.679688 C 119.449219 135.542969 117.792969 136.324219 116.097656 137.027344 C 114.402344 137.730469 112.679688 138.347656 110.925781 138.878906 C 109.167969 139.410156 107.390625 139.855469 105.59375 140.214844 C 103.792969 140.574219 101.984375 140.839844 100.15625 141.019531 C 98.332031 141.199219 96.503906 141.289062 94.667969 141.289062 C 92.835938 141.289062 91.003906 141.199219 89.179688 141.019531 C 87.355469 140.839844 85.542969 140.574219 83.742188 140.214844 C 81.945312 139.855469 80.167969 139.410156 78.414062 138.878906 C 76.65625 138.347656 74.933594 137.730469 73.238281 137.027344 C 71.542969 136.324219 69.886719 135.542969 68.269531 134.679688 C 66.652344 133.8125 65.082031 132.871094 63.554688 131.851562 C 62.03125 130.835938 60.558594 129.742188 59.140625 128.578125 C 57.722656 127.414062 56.367188 126.1875 55.070312 124.890625 C 53.773438 123.59375 52.542969 122.234375 51.378906 120.816406 C 50.214844 119.398438 49.125 117.925781 48.105469 116.402344 C 47.085938 114.878906 46.144531 113.304688 45.28125 111.6875 C 44.417969 110.070312 43.632812 108.414062 42.929688 106.722656 C 42.230469 105.027344 41.613281 103.300781 41.078125 101.546875 C 40.546875 99.792969 40.101562 98.015625 39.746094 96.214844 C 39.386719 94.417969 39.117188 92.605469 38.9375 90.78125 C 38.757812 88.953125 38.667969 87.125 38.667969 85.289062 C 38.667969 83.457031 38.757812 81.628906 38.9375 79.800781 C 39.117188 77.976562 39.386719 76.164062 39.746094 74.367188 C 40.101562 72.566406 40.546875 70.789062 41.078125 69.035156 C 41.613281 67.28125 42.230469 65.554688 42.929688 63.859375 C 43.632812 62.164062 44.417969 60.511719 45.28125 58.890625 C 46.144531 57.273438 47.085938 55.703125 48.105469 54.179688 C 49.125 52.652344 50.214844 51.183594 51.378906 49.765625 C 52.542969 48.347656 53.773438 46.988281 55.070312 45.691406 C 56.367188 44.394531 57.722656 43.164062 59.140625 42.003906 C 60.558594 40.839844 62.03125 39.746094 63.554688 38.726562 C 65.082031 37.710938 66.652344 36.769531 68.269531 35.902344 C 69.886719 35.039062 71.542969 34.253906 73.238281 33.554688 C 74.933594 32.851562 76.65625 32.234375 78.414062 31.703125 C 80.167969 31.167969 81.945312 30.722656 83.742188 30.367188 C 85.542969 30.007812 87.355469 29.738281 89.179688 29.558594 C 91.003906 29.378906 92.835938 29.289062 94.667969 29.289062 Z M 94.667969 29.289062 " fill-opacity="1" fill-rule="nonzero"/></g><path fill="#000000" d="M 67.828125 125.550781 C 68.171875 125.789062 68.550781 125.910156 68.96875 125.910156 C 69.667969 125.90625 70.214844 125.613281 70.609375 125.03125 C 70.757812 124.8125 70.859375 124.574219 70.914062 124.3125 C 70.96875 124.054688 70.972656 123.792969 70.925781 123.53125 C 70.875 123.273438 70.777344 123.03125 70.632812 122.808594 C 70.488281 122.585938 70.308594 122.402344 70.089844 122.25 C 69.433594 121.800781 68.789062 121.335938 68.160156 120.851562 C 67.527344 120.367188 66.914062 119.867188 66.308594 119.347656 C 65.707031 118.832031 65.117188 118.296875 64.542969 117.75 C 63.96875 117.199219 63.410156 116.632812 62.867188 116.054688 C 62.320312 115.476562 61.792969 114.882812 61.28125 114.273438 C 60.769531 113.664062 60.277344 113.042969 59.796875 112.410156 C 59.320312 111.773438 58.859375 111.125 58.417969 110.464844 C 57.976562 109.804688 57.550781 109.132812 57.144531 108.453125 C 56.738281 107.769531 56.351562 107.074219 55.980469 106.371094 C 55.613281 105.667969 55.261719 104.953125 54.933594 104.230469 C 54.601562 103.507812 54.292969 102.777344 54 102.035156 C 53.710938 101.296875 53.441406 100.550781 53.191406 99.796875 C 52.941406 99.039062 52.710938 98.28125 52.503906 97.511719 C 52.292969 96.746094 52.105469 95.976562 51.9375 95.199219 C 51.773438 94.421875 51.625 93.640625 51.5 92.855469 C 51.375 92.070312 51.273438 91.28125 51.191406 90.492188 C 51.109375 89.703125 51.050781 88.910156 51.011719 88.117188 C 50.972656 87.320312 50.953125 86.527344 50.957031 85.734375 C 50.960938 84.9375 50.988281 84.144531 51.035156 83.351562 C 51.082031 82.558594 51.148438 81.765625 51.238281 80.976562 C 51.328125 80.1875 51.441406 79.398438 51.574219 78.617188 C 51.707031 77.832031 51.859375 77.054688 52.035156 76.277344 C 52.207031 75.503906 52.402344 74.730469 52.621094 73.96875 C 52.835938 73.203125 53.074219 72.445312 53.332031 71.691406 C 53.589844 70.941406 53.867188 70.195312 54.164062 69.460938 C 54.460938 68.722656 54.78125 67.996094 55.117188 67.273438 C 55.453125 66.554688 55.8125 65.847656 56.1875 65.144531 C 56.5625 64.445312 56.957031 63.753906 57.371094 63.078125 C 57.785156 62.398438 58.214844 61.730469 58.664062 61.074219 C 59.113281 60.417969 59.582031 59.777344 60.066406 59.148438 C 60.550781 58.515625 61.050781 57.898438 61.566406 57.296875 C 62.085938 56.695312 62.617188 56.105469 63.167969 55.53125 C 63.328125 55.335938 63.449219 55.117188 63.527344 54.878906 C 63.605469 54.640625 63.636719 54.394531 63.621094 54.140625 C 63.609375 53.890625 63.546875 53.648438 63.441406 53.417969 C 63.335938 53.191406 63.191406 52.988281 63.007812 52.8125 C 62.828125 52.640625 62.621094 52.503906 62.386719 52.40625 C 62.152344 52.3125 61.910156 52.261719 61.65625 52.257812 C 61.40625 52.253906 61.160156 52.296875 60.925781 52.386719 C 60.6875 52.472656 60.476562 52.601562 60.289062 52.769531 C 59.6875 53.398438 59.105469 54.039062 58.542969 54.695312 C 57.976562 55.355469 57.429688 56.027344 56.902344 56.714844 C 56.375 57.402344 55.867188 58.101562 55.375 58.820312 C 54.886719 59.535156 54.414062 60.261719 53.964844 61 C 53.511719 61.742188 53.082031 62.496094 52.671875 63.257812 C 52.261719 64.023438 51.875 64.796875 51.507812 65.582031 C 51.136719 66.367188 50.792969 67.160156 50.46875 67.964844 C 50.140625 68.769531 49.839844 69.578125 49.558594 70.398438 C 49.277344 71.21875 49.019531 72.046875 48.78125 72.882812 C 48.546875 73.714844 48.332031 74.554688 48.140625 75.402344 C 47.949219 76.246094 47.785156 77.097656 47.640625 77.953125 C 47.496094 78.804688 47.371094 79.664062 47.273438 80.523438 C 47.175781 81.386719 47.101562 82.25 47.050781 83.117188 C 47 83.980469 46.972656 84.847656 46.96875 85.714844 C 46.960938 86.582031 46.980469 87.445312 47.023438 88.3125 C 47.066406 89.179688 47.132812 90.042969 47.222656 90.90625 C 47.3125 91.765625 47.421875 92.625 47.558594 93.484375 C 47.695312 94.339844 47.855469 95.191406 48.035156 96.039062 C 48.21875 96.886719 48.421875 97.726562 48.652344 98.5625 C 48.878906 99.402344 49.128906 100.230469 49.402344 101.054688 C 49.675781 101.875 49.96875 102.691406 50.285156 103.5 C 50.601562 104.304688 50.941406 105.101562 51.300781 105.890625 C 51.660156 106.679688 52.042969 107.457031 52.445312 108.226562 C 52.847656 108.996094 53.269531 109.75 53.710938 110.496094 C 54.15625 111.242188 54.617188 111.972656 55.101562 112.695312 C 55.582031 113.414062 56.085938 114.121094 56.605469 114.8125 C 57.128906 115.503906 57.667969 116.183594 58.226562 116.847656 C 58.78125 117.511719 59.359375 118.160156 59.953125 118.789062 C 60.542969 119.421875 61.152344 120.039062 61.78125 120.636719 C 62.40625 121.238281 63.046875 121.820312 63.707031 122.382812 C 64.363281 122.949219 65.035156 123.496094 65.722656 124.023438 C 66.410156 124.550781 67.113281 125.0625 67.828125 125.550781 Z M 67.828125 125.550781 " fill-opacity="1" fill-rule="nonzero"/><path fill="#000000" d="M 85.269531 130.972656 C 85.222656 131.234375 85.226562 131.496094 85.285156 131.753906 C 85.34375 132.015625 85.449219 132.253906 85.605469 132.472656 C 85.757812 132.691406 85.949219 132.871094 86.175781 133.011719 C 86.402344 133.152344 86.644531 133.246094 86.910156 133.289062 C 89.558594 133.730469 92.222656 133.949219 94.910156 133.949219 C 98.039062 133.953125 101.136719 133.652344 104.207031 133.050781 C 104.472656 133 104.71875 132.902344 104.945312 132.753906 C 105.171875 132.605469 105.359375 132.417969 105.511719 132.195312 C 105.664062 131.972656 105.765625 131.730469 105.820312 131.464844 C 105.875 131.199219 105.878906 130.9375 105.828125 130.671875 C 105.777344 130.40625 105.679688 130.160156 105.53125 129.933594 C 105.382812 129.707031 105.195312 129.519531 104.972656 129.367188 C 104.75 129.214844 104.507812 129.113281 104.242188 129.058594 C 103.976562 129.003906 103.714844 129 103.449219 129.050781 C 98.128906 130.082031 92.792969 130.148438 87.449219 129.25 C 87.191406 129.226562 86.9375 129.25 86.6875 129.320312 C 86.441406 129.394531 86.214844 129.511719 86.011719 129.671875 C 85.808594 129.832031 85.640625 130.023438 85.511719 130.25 C 85.386719 130.472656 85.304688 130.714844 85.269531 130.972656 Z M 85.269531 130.972656 " fill-opacity="1" fill-rule="nonzero"/><path fill="#000000" d="M 120.789062 121.589844 C 120.394531 121.832031 120.121094 122.167969 119.960938 122.597656 C 119.800781 123.03125 119.789062 123.464844 119.929688 123.902344 C 120.070312 124.339844 120.328125 124.691406 120.710938 124.949219 C 121.089844 125.207031 121.507812 125.320312 121.96875 125.289062 C 122.394531 125.289062 122.78125 125.160156 123.128906 124.910156 C 124.476562 123.933594 125.769531 122.890625 127.011719 121.78125 C 128.25 120.671875 129.429688 119.5 130.546875 118.265625 C 131.664062 117.035156 132.714844 115.746094 133.699219 114.40625 C 134.683594 113.0625 135.597656 111.671875 136.4375 110.234375 C 137.277344 108.796875 138.039062 107.320312 138.722656 105.804688 C 139.410156 104.289062 140.015625 102.742188 140.539062 101.160156 C 141.066406 99.582031 141.507812 97.980469 141.867188 96.355469 C 142.222656 94.730469 142.496094 93.089844 142.683594 91.4375 C 142.871094 89.78125 142.972656 88.125 142.988281 86.460938 C 143.003906 84.796875 142.933594 83.132812 142.773438 81.476562 C 142.617188 79.820312 142.375 78.175781 142.046875 76.546875 C 141.71875 74.914062 141.304688 73.304688 140.808594 71.714844 C 140.3125 70.125 139.734375 68.566406 139.078125 67.039062 C 138.417969 65.511719 137.683594 64.019531 136.871094 62.566406 C 136.054688 61.117188 135.171875 59.710938 134.210938 58.351562 C 133.25 56.988281 132.222656 55.683594 131.128906 54.429688 C 130.964844 54.203125 130.761719 54.019531 130.515625 53.875 C 130.273438 53.734375 130.011719 53.648438 129.734375 53.613281 C 129.453125 53.582031 129.179688 53.609375 128.910156 53.691406 C 128.644531 53.777344 128.402344 53.910156 128.191406 54.09375 C 127.980469 54.28125 127.8125 54.5 127.695312 54.753906 C 127.574219 55.011719 127.511719 55.277344 127.507812 55.558594 C 127.5 55.839844 127.550781 56.109375 127.660156 56.371094 C 127.769531 56.628906 127.925781 56.855469 128.128906 57.050781 C 129.132812 58.199219 130.078125 59.394531 130.957031 60.640625 C 131.835938 61.886719 132.652344 63.175781 133.398438 64.507812 C 134.144531 65.839844 134.820312 67.203125 135.421875 68.605469 C 136.027344 70.007812 136.558594 71.4375 137.015625 72.890625 C 137.46875 74.347656 137.847656 75.824219 138.152344 77.320312 C 138.453125 78.816406 138.675781 80.324219 138.820312 81.84375 C 138.96875 83.359375 139.035156 84.882812 139.019531 86.410156 C 139.007812 87.933594 138.914062 89.457031 138.742188 90.972656 C 138.574219 92.488281 138.324219 93.992188 137.996094 95.480469 C 137.667969 96.972656 137.261719 98.441406 136.78125 99.890625 C 136.300781 101.339844 135.75 102.757812 135.121094 104.148438 C 134.492188 105.539062 133.792969 106.894531 133.023438 108.210938 C 132.253906 109.527344 131.417969 110.804688 130.515625 112.035156 C 129.617188 113.265625 128.652344 114.445312 127.628906 115.578125 C 126.605469 116.707031 125.523438 117.78125 124.386719 118.800781 C 123.25 119.820312 122.0625 120.777344 120.828125 121.671875 Z M 120.789062 121.589844 " fill-opacity="1" fill-rule="nonzero"/><path fill="#000000" d="M 72.667969 73.289062 L 72.667969 129.289062 C 72.667969 129.683594 72.707031 130.074219 72.785156 130.460938 C 72.859375 130.847656 72.972656 131.222656 73.125 131.585938 C 73.277344 131.949219 73.460938 132.296875 73.679688 132.625 C 73.898438 132.953125 74.148438 133.253906 74.425781 133.535156 C 74.703125 133.8125 75.007812 134.0625 75.335938 134.28125 C 75.664062 134.5 76.007812 134.683594 76.371094 134.832031 C 76.734375 134.984375 77.109375 135.097656 77.496094 135.175781 C 77.882812 135.253906 78.273438 135.289062 78.667969 135.289062 C 79.0625 135.289062 79.453125 135.253906 79.839844 135.175781 C 80.226562 135.097656 80.601562 134.984375 80.964844 134.832031 C 81.328125 134.683594 81.675781 134.5 82 134.28125 C 82.328125 134.0625 82.632812 133.8125 82.910156 133.535156 C 83.191406 133.253906 83.4375 132.953125 83.65625 132.625 C 83.875 132.296875 84.0625 131.949219 84.210938 131.585938 C 84.363281 131.222656 84.476562 130.847656 84.554688 130.460938 C 84.628906 130.074219 84.667969 129.683594 84.667969 129.289062 L 84.667969 73.390625 C 85.574219 72.867188 86.398438 72.238281 87.136719 71.5 C 87.878906 70.761719 88.511719 69.941406 89.039062 69.039062 C 89.5625 68.136719 89.964844 67.179688 90.242188 66.171875 C 90.519531 65.164062 90.660156 64.136719 90.667969 63.089844 L 90.667969 41.570312 C 90.667969 41.304688 90.617188 41.050781 90.515625 40.804688 C 90.414062 40.558594 90.269531 40.34375 90.082031 40.15625 C 89.894531 39.96875 89.679688 39.824219 89.433594 39.722656 C 89.1875 39.621094 88.933594 39.570312 88.667969 39.570312 C 88.402344 39.570312 88.148438 39.621094 87.902344 39.722656 C 87.65625 39.824219 87.441406 39.96875 87.253906 40.15625 C 87.066406 40.34375 86.921875 40.558594 86.820312 40.804688 C 86.71875 41.050781 86.667969 41.304688 86.667969 41.570312 L 86.667969 63.089844 C 86.660156 63.863281 86.546875 64.617188 86.320312 65.355469 C 86.09375 66.09375 85.769531 66.785156 85.34375 67.429688 C 84.917969 68.074219 84.40625 68.644531 83.816406 69.140625 C 83.226562 69.640625 82.574219 70.042969 81.867188 70.351562 L 81.6875 70.46875 C 81.53125 70.5625 81.382812 70.667969 81.25 70.789062 C 81.167969 70.894531 81.09375 71 81.027344 71.109375 C 80.941406 71.207031 80.875 71.3125 80.828125 71.429688 C 80.757812 71.605469 80.71875 71.785156 80.707031 71.96875 C 80.707031 71.96875 80.707031 72.109375 80.707031 72.191406 L 80.707031 129.289062 C 80.707031 129.554688 80.65625 129.8125 80.554688 130.054688 C 80.453125 130.300781 80.308594 130.515625 80.121094 130.703125 C 79.933594 130.890625 79.71875 131.035156 79.472656 131.136719 C 79.230469 131.238281 78.972656 131.289062 78.707031 131.289062 C 78.441406 131.289062 78.1875 131.238281 77.941406 131.136719 C 77.699219 131.035156 77.480469 130.890625 77.292969 130.703125 C 77.105469 130.515625 76.960938 130.300781 76.859375 130.054688 C 76.757812 129.8125 76.707031 129.554688 76.707031 129.289062 L 76.707031 72.210938 C 76.71875 72.152344 76.71875 72.089844 76.707031 72.03125 C 76.699219 71.832031 76.660156 71.636719 76.589844 71.449219 C 76.535156 71.335938 76.464844 71.230469 76.386719 71.128906 C 76.328125 71.015625 76.253906 70.910156 76.167969 70.8125 C 76.015625 70.664062 75.839844 70.542969 75.648438 70.449219 L 75.546875 70.449219 C 74.617188 70.0625 73.796875 69.507812 73.089844 68.789062 C 72.308594 68.050781 71.707031 67.183594 71.285156 66.191406 C 70.867188 65.199219 70.660156 64.167969 70.667969 63.089844 L 70.667969 41.570312 C 70.667969 41.304688 70.617188 41.050781 70.515625 40.804688 C 70.414062 40.558594 70.269531 40.34375 70.082031 40.15625 C 69.894531 39.96875 69.679688 39.824219 69.433594 39.722656 C 69.1875 39.621094 68.933594 39.570312 68.667969 39.570312 C 68.402344 39.570312 68.148438 39.621094 67.902344 39.722656 C 67.65625 39.824219 67.441406 39.96875 67.253906 40.15625 C 67.066406 40.34375 66.921875 40.558594 66.820312 40.804688 C 66.71875 41.050781 66.667969 41.304688 66.667969 41.570312 L 66.667969 63.089844 C 66.664062 64.679688 66.96875 66.207031 67.578125 67.671875 C 68.191406 69.140625 69.058594 70.433594 70.1875 71.550781 C 70.949219 72.222656 71.777344 72.804688 72.667969 73.289062 Z M 72.667969 73.289062 " fill-opacity="1" fill-rule="nonzero"/><path fill="#000000" d="M 82.109375 67.289062 C 82.375 67.289062 82.628906 67.238281 82.875 67.136719 C 83.117188 67.035156 83.335938 66.890625 83.523438 66.703125 C 83.710938 66.515625 83.855469 66.300781 83.957031 66.054688 C 84.058594 65.8125 84.109375 65.554688 84.109375 65.289062 L 84.109375 41.289062 C 84.109375 41.027344 84.058594 40.769531 83.957031 40.523438 C 83.855469 40.28125 83.710938 40.0625 83.523438 39.875 C 83.335938 39.6875 83.117188 39.542969 82.875 39.441406 C 82.628906 39.339844 82.375 39.289062 82.109375 39.289062 C 81.84375 39.289062 81.589844 39.339844 81.34375 39.441406 C 81.097656 39.542969 80.882812 39.6875 80.695312 39.875 C 80.507812 40.0625 80.363281 40.28125 80.261719 40.523438 C 80.160156 40.769531 80.109375 41.027344 80.109375 41.289062 L 80.109375 65.289062 C 80.109375 65.554688 80.160156 65.8125 80.261719 66.054688 C 80.363281 66.300781 80.507812 66.515625 80.695312 66.703125 C 80.882812 66.890625 81.097656 67.035156 81.34375 67.136719 C 81.589844 67.238281 81.84375 67.289062 82.109375 67.289062 Z M 82.109375 67.289062 " fill-opacity="1" fill-rule="nonzero"/><path fill="#000000" d="M 75.25 67.289062 C 75.511719 67.289062 75.769531 67.238281 76.011719 67.136719 C 76.257812 67.035156 76.476562 66.890625 76.664062 66.703125 C 76.851562 66.515625 76.996094 66.300781 77.097656 66.054688 C 77.199219 65.8125 77.25 65.554688 77.25 65.289062 L 77.25 41.289062 C 77.25 41.027344 77.199219 40.769531 77.097656 40.523438 C 76.996094 40.28125 76.851562 40.0625 76.664062 39.875 C 76.476562 39.6875 76.257812 39.542969 76.011719 39.441406 C 75.769531 39.339844 75.511719 39.289062 75.25 39.289062 C 74.984375 39.289062 74.726562 39.339844 74.484375 39.441406 C 74.238281 39.542969 74.023438 39.6875 73.835938 39.875 C 73.648438 40.0625 73.503906 40.28125 73.402344 40.523438 C 73.300781 40.769531 73.25 41.027344 73.25 41.289062 L 73.25 65.289062 C 73.25 65.554688 73.300781 65.8125 73.402344 66.054688 C 73.503906 66.300781 73.648438 66.515625 73.835938 66.703125 C 74.023438 66.890625 74.238281 67.035156 74.484375 67.136719 C 74.726562 67.238281 74.984375 67.289062 75.25 67.289062 Z M 75.25 67.289062 " fill-opacity="1" fill-rule="nonzero"/><path fill="#000000" d="M 106.667969 73.890625 L 106.667969 129.03125 C 106.667969 129.425781 106.707031 129.816406 106.785156 130.203125 C 106.859375 130.585938 106.972656 130.960938 107.125 131.328125 C 107.277344 131.691406 107.460938 132.035156 107.679688 132.363281 C 107.898438 132.691406 108.148438 132.996094 108.425781 133.273438 C 108.703125 133.550781 109.007812 133.800781 109.335938 134.019531 C 109.664062 134.238281 110.007812 134.421875 110.371094 134.574219 C 110.734375 134.726562 111.109375 134.839844 111.496094 134.914062 C 111.882812 134.992188 112.273438 135.03125 112.667969 135.03125 C 113.0625 135.03125 113.453125 134.992188 113.839844 134.914062 C 114.226562 134.839844 114.601562 134.726562 114.964844 134.574219 C 115.328125 134.421875 115.675781 134.238281 116 134.019531 C 116.328125 133.800781 116.632812 133.550781 116.910156 133.273438 C 117.191406 132.996094 117.4375 132.691406 117.65625 132.363281 C 117.875 132.035156 118.0625 131.691406 118.210938 131.328125 C 118.363281 130.960938 118.476562 130.585938 118.554688 130.203125 C 118.628906 129.816406 118.667969 129.425781 118.667969 129.03125 L 118.667969 73.890625 C 123.808594 71.289062 125.667969 65.289062 125.667969 60.492188 C 125.667969 50.25 120.449219 39.289062 112.667969 39.289062 C 104.886719 39.289062 99.667969 50.25 99.667969 60.492188 C 99.667969 65.289062 101.527344 71.289062 106.667969 73.890625 Z M 112.667969 43.289062 C 117.367188 43.289062 121.667969 51.492188 121.667969 60.492188 C 121.667969 64.492188 120.167969 69.171875 115.96875 70.710938 C 115.578125 70.855469 115.261719 71.101562 115.023438 71.445312 C 114.785156 71.789062 114.667969 72.171875 114.667969 72.589844 L 114.667969 129.03125 C 114.667969 129.296875 114.617188 129.550781 114.515625 129.796875 C 114.414062 130.042969 114.269531 130.257812 114.082031 130.445312 C 113.894531 130.632812 113.679688 130.777344 113.433594 130.878906 C 113.1875 130.980469 112.933594 131.03125 112.667969 131.03125 C 112.402344 131.03125 112.148438 130.980469 111.902344 130.878906 C 111.65625 130.777344 111.441406 130.632812 111.253906 130.445312 C 111.066406 130.257812 110.921875 130.042969 110.820312 129.796875 C 110.71875 129.550781 110.667969 129.296875 110.667969 129.03125 L 110.667969 72.589844 C 110.667969 72.171875 110.550781 71.789062 110.3125 71.445312 C 110.074219 71.101562 109.761719 70.855469 109.367188 70.710938 C 105.167969 69.171875 103.667969 64.410156 103.667969 60.492188 C 103.667969 51.492188 107.96875 43.289062 112.667969 43.289062 Z M 112.667969 43.289062 " fill-opacity="1" fill-rule="nonzero"/><g clip-path="url(#d5260d46e5)"><path fill="#000000" d="M 150.816406 289.765625 C 151.230469 288.511719 151.292969 286.53125 149.492188 283.9375 C 147.621094 281.246094 144.066406 278.476562 140.585938 277.546875 C 140.648438 275.988281 140.210938 274.539062 139.289062 273.273438 C 136.496094 269.441406 129.660156 268.074219 124.195312 268.074219 C 118.425781 268.074219 111.945312 268.804688 107.222656 274.015625 C 99.441406 273.878906 94.019531 277.765625 92 279.5 C 90.847656 280.488281 89.949219 282.066406 89.324219 284.042969 C 82.945312 287.359375 77.339844 295.472656 77.117188 301.945312 C 77.003906 305.210938 77.667969 307.542969 79.148438 309.070312 C 80.761719 310.738281 82.871094 310.929688 84.3125 310.929688 C 87.78125 310.929688 91.925781 309.785156 93.921875 309.160156 C 95.308594 310.261719 97.097656 310.929688 99.4375 310.929688 C 102.1875 310.929688 105.734375 309.65625 107.96875 308.652344 C 109.953125 310.164062 112.246094 310.929688 114.8125 310.929688 L 115.464844 310.933594 C 115.6875 310.9375 115.925781 310.9375 116.179688 310.9375 C 118.578125 310.9375 122.148438 310.796875 124.507812 309.117188 C 126.941406 310.84375 129.320312 310.929688 133.578125 310.929688 C 136.136719 310.929688 137.765625 310.035156 138.941406 308.722656 C 139.503906 308.84375 140.226562 309.019531 140.855469 309.171875 C 144.011719 309.933594 148.003906 310.902344 151.4375 310.902344 C 154.597656 310.902344 157.28125 310.085938 158.402344 307.535156 C 160.890625 301.871094 155.398438 293.378906 150.816406 289.765625 Z M 84.3125 306.957031 C 83.140625 306.957031 82.453125 306.761719 82.011719 306.308594 C 81.34375 305.617188 81.027344 304.15625 81.097656 302.082031 C 81.242188 297.988281 84.441406 292.703125 88.371094 289.449219 C 88.144531 292.789062 88.453125 296.5625 89.355469 300.304688 C 89.8125 302.207031 90.394531 304.125 91.261719 305.796875 C 89.3125 306.332031 86.574219 306.957031 84.3125 306.957031 Z M 99.4375 306.957031 C 96.664062 306.957031 94.757812 305.714844 93.230469 299.375 C 91.210938 291.003906 92.757812 284.09375 94.597656 282.515625 C 96.007812 281.304688 99.429688 278.816406 104.34375 278.152344 C 101.289062 283.875 101.222656 289.980469 101.195312 292.859375 L 101.1875 293.359375 C 101.152344 295.738281 102.09375 301.328125 105.054688 305.5625 C 103.179688 306.300781 100.960938 306.957031 99.4375 306.957031 Z M 122.910156 304.601562 C 122.632812 306.601562 119.859375 306.992188 115.488281 306.957031 L 114.8125 306.957031 C 112.730469 306.957031 110.984375 306.214844 109.476562 304.6875 C 106.152344 301.316406 105.144531 295.164062 105.171875 293.421875 L 105.179688 292.902344 C 105.214844 289.597656 105.285156 282.722656 109.664062 277.285156 C 113.160156 272.941406 118.003906 272.050781 124.195312 272.050781 C 128.664062 272.050781 134.285156 273.164062 136.066406 275.609375 C 136.445312 276.132812 136.894531 277.007812 136.375 278.597656 C 135.753906 280.523438 133.902344 282.847656 132.113281 285.09375 C 130.792969 286.75 129.429688 288.464844 128.359375 290.222656 C 125.058594 295.644531 123.632812 299.40625 122.910156 304.601562 Z M 139.855469 298.675781 C 138.960938 300.152344 138.332031 301.558594 137.773438 302.796875 C 136.355469 305.957031 135.800781 306.957031 133.578125 306.957031 C 129.5 306.957031 128.128906 306.863281 126.730469 305.824219 C 126.78125 305.609375 126.824219 305.382812 126.859375 305.148438 C 127.503906 300.496094 128.742188 297.25 131.761719 292.289062 C 132.703125 290.742188 133.988281 289.128906 135.230469 287.566406 C 136.914062 285.457031 138.519531 283.441406 139.527344 281.382812 C 141.804688 281.988281 144.695312 284.015625 146.214844 286.203125 C 147.023438 287.367188 147.15625 288.1875 147.023438 288.539062 C 146.371094 290.273438 145.269531 291.585938 143.871094 293.253906 C 142.648438 294.714844 141.257812 296.367188 139.855469 298.675781 Z M 154.753906 305.9375 C 154.09375 307.441406 149.734375 307.230469 141.796875 305.308594 C 141.546875 305.246094 141.308594 305.191406 141.089844 305.136719 C 141.195312 304.898438 141.304688 304.660156 141.410156 304.421875 C 141.945312 303.234375 142.496094 302.003906 143.265625 300.738281 C 144.511719 298.6875 145.738281 297.222656 146.925781 295.804688 C 147.617188 294.980469 148.289062 294.179688 148.898438 293.328125 C 152.382812 296.351562 156.167969 302.722656 154.753906 305.9375 Z M 154.753906 305.9375 " fill-opacity="1" fill-rule="nonzero"/></g><path fill="#000000" d="M 68.097656 290.800781 C 68.097656 290.695312 68.089844 290.589844 68.074219 290.484375 C 67.722656 288.328125 66.519531 286.582031 64.992188 284.375 C 61.390625 279.164062 55.429688 270.535156 55.121094 246.128906 L 113.464844 246.128906 C 113.390625 251.972656 112.984375 257.296875 112.253906 261.980469 L 116.191406 262.589844 C 117.035156 257.179688 117.460938 250.972656 117.460938 244.140625 C 117.460938 243.042969 116.570312 242.152344 115.46875 242.152344 L 53.117188 242.152344 C 52.015625 242.152344 51.125 243.042969 51.125 244.140625 C 51.125 248.277344 51.277344 252.007812 51.550781 255.378906 C 48.894531 253.726562 46.015625 253.464844 44.472656 253.464844 C 41.910156 253.464844 39.683594 254.425781 38.03125 256.242188 C 36.234375 258.222656 35.28125 261.109375 35.546875 263.777344 C 36.246094 270.855469 41.757812 273.15625 47.59375 275.59375 C 51.066406 277.042969 54.988281 278.683594 58.460938 281.527344 C 59.613281 283.59375 60.742188 285.230469 61.710938 286.632812 C 62.953125 288.429688 63.863281 289.746094 64.113281 290.980469 L 64.113281 291.40625 L 45.320312 291.40625 L 45.320312 295.382812 L 72.601562 295.382812 L 72.601562 291.40625 L 68.097656 291.40625 Z M 49.132812 271.925781 C 43.117188 269.414062 39.957031 267.894531 39.511719 263.386719 C 39.382812 262.109375 39.789062 260.230469 40.984375 258.914062 C 41.871094 257.9375 43.046875 257.441406 44.472656 257.441406 C 46.628906 257.441406 50.476562 258.058594 52.324219 262.140625 C 53.101562 267.308594 54.191406 271.429688 55.402344 274.785156 C 53.253906 273.648438 51.125 272.757812 49.132812 271.925781 Z M 49.132812 271.925781 " fill-opacity="1" fill-rule="nonzero"/><g clip-path="url(#1c4ebda48a)"><path fill="#000000" d="M 80.933594 230.382812 L 83.878906 233.0625 C 91.140625 225.109375 87.109375 219.996094 84.164062 216.261719 C 81.179688 212.472656 79.207031 209.972656 84.910156 204.28125 L 82.09375 201.46875 C 73.886719 209.65625 78.015625 214.894531 81.03125 218.71875 C 83.976562 222.453125 85.921875 224.921875 80.933594 230.382812 Z M 80.933594 230.382812 " fill-opacity="1" fill-rule="nonzero"/></g><path fill="#000000" d="M 98.398438 230.488281 L 101.527344 232.953125 C 105.496094 227.941406 103.214844 224.601562 101.707031 222.390625 C 100.265625 220.285156 99.542969 219.226562 102.015625 216.382812 L 99.003906 213.777344 C 94.523438 218.9375 96.863281 222.363281 98.414062 224.632812 C 99.839844 226.71875 100.554688 227.765625 98.398438 230.488281 Z M 98.398438 230.488281 " fill-opacity="1" fill-rule="nonzero"/><path fill="#000000" d="M 65.785156 230.488281 L 68.914062 232.953125 C 72.882812 227.941406 70.601562 224.601562 69.09375 222.390625 C 67.652344 220.285156 66.929688 219.226562 69.402344 216.382812 L 66.390625 213.777344 C 61.910156 218.9375 64.25 222.363281 65.800781 224.632812 C 67.226562 226.71875 67.941406 227.765625 65.785156 230.488281 Z M 65.785156 230.488281 " fill-opacity="1" fill-rule="nonzero"/><g clip-path="url(#58d02dbe8e)"><path fill="#000000" d="M 342.066406 52.417969 L 328.496094 52.417969 L 328.496094 28.003906 C 328.492188 26.507812 327.277344 25.292969 325.78125 25.292969 C 325.519531 25.292969 325.261719 25.332031 325.015625 25.40625 L 232.730469 52.53125 C 232.675781 52.53125 232.632812 52.582031 232.578125 52.601562 C 232.441406 52.660156 232.308594 52.726562 232.179688 52.800781 C 232.015625 52.890625 231.863281 52.996094 231.71875 53.113281 C 231.613281 53.210938 231.515625 53.316406 231.425781 53.429688 C 231.304688 53.574219 231.203125 53.726562 231.113281 53.894531 C 231.050781 54.019531 230.996094 54.152344 230.949219 54.285156 C 230.890625 54.476562 230.847656 54.675781 230.832031 54.875 C 230.832031 54.964844 230.78125 55.039062 230.78125 55.128906 L 230.78125 185.328125 C 230.78125 186.824219 231.996094 188.039062 233.496094 188.039062 L 342.066406 188.039062 C 343.5625 188.039062 344.78125 186.824219 344.78125 185.328125 L 344.78125 55.128906 C 344.78125 53.632812 343.566406 52.417969 342.066406 52.417969 Z M 323.066406 31.628906 L 323.066406 52.417969 L 252.34375 52.417969 Z M 339.351562 182.617188 L 236.207031 182.617188 L 236.207031 57.84375 L 339.351562 57.84375 Z M 339.351562 182.617188 " fill-opacity="1" fill-rule="nonzero"/></g><path fill="#000000" d="M 268.777344 68.691406 C 267.828125 68.691406 266.945312 69.191406 266.453125 70.007812 L 260.636719 79.695312 L 254.820312 70.007812 C 254.046875 68.722656 252.382812 68.308594 251.09375 69.082031 C 250.277344 69.570312 249.78125 70.453125 249.78125 71.402344 L 249.78125 93.101562 C 249.78125 94.601562 250.996094 95.816406 252.492188 95.816406 C 253.992188 95.816406 255.207031 94.601562 255.207031 93.101562 L 255.207031 81.195312 L 258.308594 86.363281 C 259.191406 87.648438 260.945312 87.972656 262.230469 87.09375 C 262.519531 86.898438 262.765625 86.648438 262.960938 86.363281 L 266.066406 81.195312 L 266.066406 93.101562 C 266.066406 94.601562 267.28125 95.816406 268.78125 95.816406 C 270.277344 95.816406 271.492188 94.601562 271.492188 93.101562 L 271.492188 71.402344 C 271.492188 69.90625 270.277344 68.691406 268.777344 68.691406 Z M 268.777344 68.691406 " fill-opacity="1" fill-rule="nonzero"/><path fill="#000000" d="M 285.066406 84.964844 C 286.566406 84.964844 287.78125 83.753906 287.78125 82.253906 C 287.78125 80.757812 286.566406 79.542969 285.066406 79.542969 L 279.636719 79.542969 L 279.636719 74.117188 L 285.066406 74.117188 C 286.566406 74.117188 287.78125 72.902344 287.78125 71.402344 C 287.78125 69.90625 286.566406 68.691406 285.066406 68.691406 L 276.921875 68.691406 C 275.421875 68.691406 274.210938 69.90625 274.210938 71.402344 L 274.210938 93.101562 C 274.210938 94.601562 275.421875 95.816406 276.921875 95.816406 L 285.066406 95.816406 C 286.566406 95.816406 287.78125 94.601562 287.78125 93.101562 C 287.78125 91.605469 286.566406 90.390625 285.066406 90.390625 L 279.636719 90.390625 L 279.636719 84.964844 Z M 285.066406 84.964844 " fill-opacity="1" fill-rule="nonzero"/><path fill="#000000" d="M 304.066406 68.691406 C 302.566406 68.691406 301.351562 69.90625 301.351562 71.402344 L 301.351562 81.613281 L 295.652344 70.191406 C 295 68.84375 293.375 68.28125 292.023438 68.933594 C 291.078125 69.390625 290.484375 70.355469 290.496094 71.402344 L 290.496094 93.101562 C 290.496094 94.601562 291.710938 95.816406 293.207031 95.816406 C 294.707031 95.816406 295.921875 94.601562 295.921875 93.101562 L 295.921875 82.894531 L 301.621094 94.316406 C 302.277344 95.664062 303.898438 96.230469 305.25 95.574219 C 306.195312 95.117188 306.792969 94.15625 306.78125 93.101562 L 306.78125 71.402344 C 306.78125 69.90625 305.566406 68.691406 304.066406 68.691406 Z M 304.066406 68.691406 " fill-opacity="1" fill-rule="nonzero"/><path fill="#000000" d="M 323.066406 68.691406 C 321.566406 68.691406 320.351562 69.90625 320.351562 71.402344 L 320.351562 87.679688 C 320.351562 89.175781 319.136719 90.390625 317.636719 90.390625 C 316.136719 90.390625 314.921875 89.175781 314.921875 87.679688 L 314.921875 71.402344 C 314.921875 69.90625 313.707031 68.691406 312.207031 68.691406 C 310.707031 68.691406 309.496094 69.90625 309.496094 71.402344 L 309.496094 87.679688 C 309.496094 92.171875 313.140625 95.816406 317.636719 95.816406 C 322.136719 95.816406 325.78125 92.171875 325.78125 87.679688 L 325.78125 71.402344 C 325.78125 69.90625 324.566406 68.691406 323.066406 68.691406 Z M 323.066406 68.691406 " fill-opacity="1" fill-rule="nonzero"/><path fill="#000000" d="M 331.207031 120.226562 L 244.351562 120.226562 C 242.851562 120.226562 241.636719 121.441406 241.636719 122.941406 C 241.636719 124.441406 242.851562 125.652344 244.351562 125.652344 L 331.207031 125.652344 C 332.707031 125.652344 333.921875 124.441406 333.921875 122.941406 C 333.921875 121.441406 332.707031 120.226562 331.207031 120.226562 Z M 331.207031 120.226562 " fill-opacity="1" fill-rule="nonzero"/><path fill="#000000" d="M 331.207031 136.503906 L 244.351562 136.503906 C 242.851562 136.503906 241.636719 137.71875 241.636719 139.214844 C 241.636719 140.714844 242.851562 141.929688 244.351562 141.929688 L 331.207031 141.929688 C 332.707031 141.929688 333.921875 140.714844 333.921875 139.214844 C 333.921875 137.71875 332.707031 136.503906 331.207031 136.503906 Z M 331.207031 136.503906 " fill-opacity="1" fill-rule="nonzero"/><path fill="#000000" d="M 331.207031 152.777344 L 244.351562 152.777344 C 242.851562 152.777344 241.636719 153.992188 241.636719 155.492188 C 241.636719 156.988281 242.851562 158.203125 244.351562 158.203125 L 331.207031 158.203125 C 332.707031 158.203125 333.921875 156.988281 333.921875 155.492188 C 333.921875 153.992188 332.707031 152.777344 331.207031 152.777344 Z M 331.207031 152.777344 " fill-opacity="1" fill-rule="nonzero"/></svg>